<svg xmlns="http://www.w3.org/2000/svg" xmlns:xlink="http://www.w3.org/1999/xlink" width="1920" zoomAndPan="magnify" viewBox="0 0 1440 809.999993" height="1080" preserveAspectRatio="xMidYMid meet" version="1.0"><defs><clipPath id="cb51bf5163"><path d="M 70 728 L 222 728 L 222 775.1875 L 70 775.1875 Z M 70 728 " clip-rule="nonzero"/></clipPath><clipPath id="118f7f87e9"><path d="M 61.296875 673 L 118 673 L 118 768 L 61.296875 768 Z M 61.296875 673 " clip-rule="nonzero"/></clipPath><clipPath id="b4bfed0017"><path d="M 70 666.4375 L 222 666.4375 L 222 731 L 70 731 Z M 70 666.4375 " clip-rule="nonzero"/></clipPath><clipPath id="6b98ec8244"><path d="M 173 673 L 230.046875 673 L 230.046875 768 L 173 768 Z M 173 673 " clip-rule="nonzero"/></clipPath><clipPath id="240d8df674"><path d="M 70 601 L 222 601 L 222 648.976562 L 70 648.976562 Z M 70 601 " clip-rule="nonzero"/></clipPath><clipPath id="d5125b1fb2"><path d="M 61.296875 547 L 118 547 L 118 642 L 61.296875 642 Z M 61.296875 547 " clip-rule="nonzero"/></clipPath><clipPath id="6c1dce76c6"><path d="M 70 540.226562 L 222 540.226562 L 222 604 L 70 604 Z M 70 540.226562 " clip-rule="nonzero"/></clipPath><clipPath id="905f01f766"><path d="M 173 547 L 230.046875 547 L 230.046875 642 L 173 642 Z M 173 547 " clip-rule="nonzero"/></clipPath><clipPath id="ad868ff3cd"><path d="M 70 475 L 222 475 L 222 522.535156 L 70 522.535156 Z M 70 475 " clip-rule="nonzero"/></clipPath><clipPath id="cdddaf72f9"><path d="M 61.296875 421 L 118 421 L 118 516 L 61.296875 516 Z M 61.296875 421 " clip-rule="nonzero"/></clipPath><clipPath id="be18bfaa62"><path d="M 70 413.785156 L 222 413.785156 L 222 478 L 70 478 Z M 70 413.785156 " clip-rule="nonzero"/></clipPath><clipPath id="ff0cd90926"><path d="M 173 421 L 230.046875 421 L 230.046875 516 L 173 516 Z M 173 421 " clip-rule="nonzero"/></clipPath><clipPath id="9cf77d3417"><path d="M 70 349 L 222 349 L 222 396.324219 L 70 396.324219 Z M 70 349 " clip-rule="nonzero"/></clipPath><clipPath id="e911959652"><path d="M 61.296875 294 L 118 294 L 118 390 L 61.296875 390 Z M 61.296875 294 " clip-rule="nonzero"/></clipPath><clipPath id="8550be4f18"><path d="M 70 287.574219 L 222 287.574219 L 222 352 L 70 352 Z M 70 287.574219 " clip-rule="nonzero"/></clipPath><clipPath id="eeb049fdc0"><path d="M 173 294 L 230.046875 294 L 230.046875 390 L 173 390 Z M 173 294 " clip-rule="nonzero"/></clipPath><clipPath id="fec34f810c"><path d="M 70 222 L 222 222 L 222 269.882812 L 70 269.882812 Z M 70 222 " clip-rule="nonzero"/></clipPath><clipPath id="094cb6fccc"><path d="M 61.296875 168 L 118 168 L 118 263 L 61.296875 263 Z M 61.296875 168 " clip-rule="nonzero"/></clipPath><clipPath id="aa86f566a2"><path d="M 70 161.132812 L 222 161.132812 L 222 225 L 70 225 Z M 70 161.132812 " clip-rule="nonzero"/></clipPath><clipPath id="1c83323e2c"><path d="M 173 168 L 230.046875 168 L 230.046875 263 L 173 263 Z M 173 168 " clip-rule="nonzero"/></clipPath><clipPath id="ad260aae15"><path d="M 70 96 L 222 96 L 222 143.671875 L 70 143.671875 Z M 70 96 " clip-rule="nonzero"/></clipPath><clipPath id="4f85eb9203"><path d="M 61.296875 42 L 118 42 L 118 137 L 61.296875 137 Z M 61.296875 42 " clip-rule="nonzero"/></clipPath><clipPath id="43c487538e"><path d="M 173 42 L 230.046875 42 L 230.046875 137 L 173 137 Z M 173 42 " clip-rule="nonzero"/></clipPath><clipPath id="a76d48c006"><path d="M 260 728 L 411 728 L 411 775.285156 L 260 775.285156 Z M 260 728 " clip-rule="nonzero"/></clipPath><clipPath id="2ad581d12a"><path d="M 251.15625 673 L 308 673 L 308 768 L 251.15625 768 Z M 251.15625 673 " clip-rule="nonzero"/></clipPath><clipPath id="46e132d106"><path d="M 260 666.535156 L 411 666.535156 L 411 731 L 260 731 Z M 260 666.535156 " clip-rule="nonzero"/></clipPath><clipPath id="f923f04b25"><path d="M 363 673 L 419.90625 673 L 419.90625 768 L 363 768 Z M 363 673 " clip-rule="nonzero"/></clipPath><clipPath id="e685041fb0"><path d="M 251.15625 547 L 308 547 L 308 642 L 251.15625 642 Z M 251.15625 547 " clip-rule="nonzero"/></clipPath><clipPath id="b195ff45ad"><path d="M 260 540.328125 L 411 540.328125 L 411 604 L 260 604 Z M 260 540.328125 " clip-rule="nonzero"/></clipPath><clipPath id="2cc2197832"><path d="M 363 547 L 419.90625 547 L 419.90625 642 L 363 642 Z M 363 547 " clip-rule="nonzero"/></clipPath><clipPath id="e23ab39dae"><path d="M 260 475 L 411 475 L 411 522.632812 L 260 522.632812 Z M 260 475 " clip-rule="nonzero"/></clipPath><clipPath id="b0fd123fd7"><path d="M 251.15625 421 L 308 421 L 308 516 L 251.15625 516 Z M 251.15625 421 " clip-rule="nonzero"/></clipPath><clipPath id="16c6c497f5"><path d="M 363 421 L 419.90625 421 L 419.90625 516 L 363 516 Z M 363 421 " clip-rule="nonzero"/></clipPath><clipPath id="86dc82d596"><path d="M 260 349 L 411 349 L 411 396.421875 L 260 396.421875 Z M 260 349 " clip-rule="nonzero"/></clipPath><clipPath id="99a89b73f8"><path d="M 251.15625 294 L 308 294 L 308 390 L 251.15625 390 Z M 251.15625 294 " clip-rule="nonzero"/></clipPath><clipPath id="406d167bea"><path d="M 260 287.671875 L 411 287.671875 L 411 352 L 260 352 Z M 260 287.671875 " clip-rule="nonzero"/></clipPath><clipPath id="836d0c2a6f"><path d="M 363 294 L 419.90625 294 L 419.90625 390 L 363 390 Z M 363 294 " clip-rule="nonzero"/></clipPath><clipPath id="c57896d56c"><path d="M 260 222 L 411 222 L 411 269.980469 L 260 269.980469 Z M 260 222 " clip-rule="nonzero"/></clipPath><clipPath id="c37c30ff97"><path d="M 251.15625 168 L 308 168 L 308 263 L 251.15625 263 Z M 251.15625 168 " clip-rule="nonzero"/></clipPath><clipPath id="6f6e58f350"><path d="M 260 161.230469 L 411 161.230469 L 411 225 L 260 225 Z M 260 161.230469 " clip-rule="nonzero"/></clipPath><clipPath id="3f4b4bfe70"><path d="M 363 168 L 419.90625 168 L 419.90625 263 L 363 263 Z M 363 168 " clip-rule="nonzero"/></clipPath><clipPath id="ca8c12a852"><path d="M 260 96 L 411 96 L 411 143.769531 L 260 143.769531 Z M 260 96 " clip-rule="nonzero"/></clipPath><clipPath id="c31977d6d7"><path d="M 251.15625 42 L 308 42 L 308 137 L 251.15625 137 Z M 251.15625 42 " clip-rule="nonzero"/></clipPath><clipPath id="987fb3ecf5"><path d="M 260 35.019531 L 411 35.019531 L 411 99 L 260 99 Z M 260 35.019531 " clip-rule="nonzero"/></clipPath><clipPath id="88e8e4d709"><path d="M 363 42 L 419.90625 42 L 419.90625 137 L 363 137 Z M 363 42 " clip-rule="nonzero"/></clipPath><clipPath id="80b7e8e734"><path d="M 450 728 L 602 728 L 602 775.285156 L 450 775.285156 Z M 450 728 " clip-rule="nonzero"/></clipPath><clipPath id="5a4fef08d8"><path d="M 441.269531 673 L 498 673 L 498 768 L 441.269531 768 Z M 441.269531 673 " clip-rule="nonzero"/></clipPath><clipPath id="0021cfd513"><path d="M 450 666.535156 L 602 666.535156 L 602 731 L 450 731 Z M 450 666.535156 " clip-rule="nonzero"/></clipPath><clipPath id="c789c0f68e"><path d="M 553 673 L 610.019531 673 L 610.019531 768 L 553 768 Z M 553 673 " clip-rule="nonzero"/></clipPath><clipPath id="8c32df902f"><path d="M 441.269531 547 L 498 547 L 498 642 L 441.269531 642 Z M 441.269531 547 " clip-rule="nonzero"/></clipPath><clipPath id="f0d17cf224"><path d="M 450 540.328125 L 602 540.328125 L 602 604 L 450 604 Z M 450 540.328125 " clip-rule="nonzero"/></clipPath><clipPath id="44aee1b92e"><path d="M 553 547 L 610.019531 547 L 610.019531 642 L 553 642 Z M 553 547 " clip-rule="nonzero"/></clipPath><clipPath id="3714502715"><path d="M 450 475 L 602 475 L 602 522.632812 L 450 522.632812 Z M 450 475 " clip-rule="nonzero"/></clipPath><clipPath id="fa7d3d3037"><path d="M 441.269531 421 L 498 421 L 498 516 L 441.269531 516 Z M 441.269531 421 " clip-rule="nonzero"/></clipPath><clipPath id="158b277f5e"><path d="M 553 421 L 610.019531 421 L 610.019531 516 L 553 516 Z M 553 421 " clip-rule="nonzero"/></clipPath><clipPath id="7671871724"><path d="M 450 349 L 602 349 L 602 396.421875 L 450 396.421875 Z M 450 349 " clip-rule="nonzero"/></clipPath><clipPath id="b9cf65324b"><path d="M 441.269531 294 L 498 294 L 498 390 L 441.269531 390 Z M 441.269531 294 " clip-rule="nonzero"/></clipPath><clipPath id="0bc77a6c6a"><path d="M 450 287.671875 L 602 287.671875 L 602 352 L 450 352 Z M 450 287.671875 " clip-rule="nonzero"/></clipPath><clipPath id="28cc661166"><path d="M 553 294 L 610.019531 294 L 610.019531 390 L 553 390 Z M 553 294 " clip-rule="nonzero"/></clipPath><clipPath id="0d4d362564"><path d="M 450 222 L 602 222 L 602 269.980469 L 450 269.980469 Z M 450 222 " clip-rule="nonzero"/></clipPath><clipPath id="5642de4eca"><path d="M 441.269531 168 L 498 168 L 498 263 L 441.269531 263 Z M 441.269531 168 " clip-rule="nonzero"/></clipPath><clipPath id="04ae2982e8"><path d="M 450 161.230469 L 602 161.230469 L 602 225 L 450 225 Z M 450 161.230469 " clip-rule="nonzero"/></clipPath><clipPath id="10ec0f43b4"><path d="M 553 168 L 610.019531 168 L 610.019531 263 L 553 263 Z M 553 168 " clip-rule="nonzero"/></clipPath><clipPath id="49aba673ca"><path d="M 450 96 L 602 96 L 602 143.769531 L 450 143.769531 Z M 450 96 " clip-rule="nonzero"/></clipPath><clipPath id="8b115efcc9"><path d="M 441.269531 42 L 498 42 L 498 137 L 441.269531 137 Z M 441.269531 42 " clip-rule="nonzero"/></clipPath><clipPath id="e14ba04187"><path d="M 450 35.019531 L 602 35.019531 L 602 99 L 450 99 Z M 450 35.019531 " clip-rule="nonzero"/></clipPath><clipPath id="2a35bb19c9"><path d="M 553 42 L 610.019531 42 L 610.019531 137 L 553 137 Z M 553 42 " clip-rule="nonzero"/></clipPath><clipPath id="96ae9c1d49"><path d="M 631.382812 673 L 688 673 L 688 768 L 631.382812 768 Z M 631.382812 673 " clip-rule="nonzero"/></clipPath><clipPath id="dbcd77ec41"><path d="M 640 666.339844 L 792 666.339844 L 792 730 L 640 730 Z M 640 666.339844 " clip-rule="nonzero"/></clipPath><clipPath id="6a94cbd8f2"><path d="M 743 673 L 800.132812 673 L 800.132812 768 L 743 768 Z M 743 673 " clip-rule="nonzero"/></clipPath><clipPath id="9204c75166"><path d="M 640 601 L 792 601 L 792 648.878906 L 640 648.878906 Z M 640 601 " clip-rule="nonzero"/></clipPath><clipPath id="1331688913"><path d="M 631.382812 547 L 688 547 L 688 642 L 631.382812 642 Z M 631.382812 547 " clip-rule="nonzero"/></clipPath><clipPath id="464dad48b5"><path d="M 640 540.128906 L 792 540.128906 L 792 604 L 640 604 Z M 640 540.128906 " clip-rule="nonzero"/></clipPath><clipPath id="59c87df34e"><path d="M 743 547 L 800.132812 547 L 800.132812 642 L 743 642 Z M 743 547 " clip-rule="nonzero"/></clipPath><clipPath id="d38b97e8e9"><path d="M 640 475 L 792 475 L 792 522.4375 L 640 522.4375 Z M 640 475 " clip-rule="nonzero"/></clipPath><clipPath id="bbb01d9190"><path d="M 631.382812 420 L 688 420 L 688 516 L 631.382812 516 Z M 631.382812 420 " clip-rule="nonzero"/></clipPath><clipPath id="0615578eb7"><path d="M 640 413.6875 L 792 413.6875 L 792 478 L 640 478 Z M 640 413.6875 " clip-rule="nonzero"/></clipPath><clipPath id="85834963ab"><path d="M 743 420 L 800.132812 420 L 800.132812 516 L 743 516 Z M 743 420 " clip-rule="nonzero"/></clipPath><clipPath id="8b74575e59"><path d="M 640 349 L 792 349 L 792 396.226562 L 640 396.226562 Z M 640 349 " clip-rule="nonzero"/></clipPath><clipPath id="cca49f56cb"><path d="M 631.382812 294 L 688 294 L 688 389 L 631.382812 389 Z M 631.382812 294 " clip-rule="nonzero"/></clipPath><clipPath id="d5ff571f3d"><path d="M 640 287.476562 L 792 287.476562 L 792 352 L 640 352 Z M 640 287.476562 " clip-rule="nonzero"/></clipPath><clipPath id="0497454b49"><path d="M 743 294 L 800.132812 294 L 800.132812 389 L 743 389 Z M 743 294 " clip-rule="nonzero"/></clipPath><clipPath id="015747f7ad"><path d="M 640 222 L 792 222 L 792 269.78125 L 640 269.78125 Z M 640 222 " clip-rule="nonzero"/></clipPath><clipPath id="49ca719369"><path d="M 631.382812 168 L 688 168 L 688 263 L 631.382812 263 Z M 631.382812 168 " clip-rule="nonzero"/></clipPath><clipPath id="0376b7b9fa"><path d="M 640 161.03125 L 792 161.03125 L 792 225 L 640 225 Z M 640 161.03125 " clip-rule="nonzero"/></clipPath><clipPath id="f144d829fc"><path d="M 743 168 L 800.132812 168 L 800.132812 263 L 743 263 Z M 743 168 " clip-rule="nonzero"/></clipPath><clipPath id="eacd81c96a"><path d="M 640 96 L 792 96 L 792 143.574219 L 640 143.574219 Z M 640 96 " clip-rule="nonzero"/></clipPath><clipPath id="3845816682"><path d="M 631.382812 42 L 688 42 L 688 137 L 631.382812 137 Z M 631.382812 42 " clip-rule="nonzero"/></clipPath><clipPath id="9c2e9652a6"><path d="M 640 34.824219 L 792 34.824219 L 792 99 L 640 99 Z M 640 34.824219 " clip-rule="nonzero"/></clipPath><clipPath id="7a4a0f929f"><path d="M 743 42 L 800.132812 42 L 800.132812 137 L 743 137 Z M 743 42 " clip-rule="nonzero"/></clipPath><clipPath id="a22aa9ccf3"><path d="M 830 728 L 982 728 L 982 775.1875 L 830 775.1875 Z M 830 728 " clip-rule="nonzero"/></clipPath><clipPath id="3901cc2060"><path d="M 821.242188 673 L 878 673 L 878 768 L 821.242188 768 Z M 821.242188 673 " clip-rule="nonzero"/></clipPath><clipPath id="3cc5558702"><path d="M 830 666.4375 L 982 666.4375 L 982 731 L 830 731 Z M 830 666.4375 " clip-rule="nonzero"/></clipPath><clipPath id="9dca0a5db0"><path d="M 933 673 L 989.992188 673 L 989.992188 768 L 933 768 Z M 933 673 " clip-rule="nonzero"/></clipPath><clipPath id="cae533d131"><path d="M 830 601 L 982 601 L 982 648.976562 L 830 648.976562 Z M 830 601 " clip-rule="nonzero"/></clipPath><clipPath id="b70102c8c8"><path d="M 821.242188 547 L 878 547 L 878 642 L 821.242188 642 Z M 821.242188 547 " clip-rule="nonzero"/></clipPath><clipPath id="592b28fd64"><path d="M 830 540.226562 L 982 540.226562 L 982 604 L 830 604 Z M 830 540.226562 " clip-rule="nonzero"/></clipPath><clipPath id="0fa43457ee"><path d="M 933 547 L 989.992188 547 L 989.992188 642 L 933 642 Z M 933 547 " clip-rule="nonzero"/></clipPath><clipPath id="5ac3e0aa99"><path d="M 830 475 L 982 475 L 982 522.535156 L 830 522.535156 Z M 830 475 " clip-rule="nonzero"/></clipPath><clipPath id="8e7a456206"><path d="M 821.242188 421 L 878 421 L 878 516 L 821.242188 516 Z M 821.242188 421 " clip-rule="nonzero"/></clipPath><clipPath id="16039c7f2e"><path d="M 830 413.785156 L 982 413.785156 L 982 478 L 830 478 Z M 830 413.785156 " clip-rule="nonzero"/></clipPath><clipPath id="4d521865d2"><path d="M 933 421 L 989.992188 421 L 989.992188 516 L 933 516 Z M 933 421 " clip-rule="nonzero"/></clipPath><clipPath id="3f6104d60d"><path d="M 830 349 L 982 349 L 982 396.324219 L 830 396.324219 Z M 830 349 " clip-rule="nonzero"/></clipPath><clipPath id="744e0bf33e"><path d="M 821.242188 294 L 878 294 L 878 390 L 821.242188 390 Z M 821.242188 294 " clip-rule="nonzero"/></clipPath><clipPath id="07c26159fb"><path d="M 830 287.574219 L 982 287.574219 L 982 352 L 830 352 Z M 830 287.574219 " clip-rule="nonzero"/></clipPath><clipPath id="8df5d7c940"><path d="M 933 294 L 989.992188 294 L 989.992188 390 L 933 390 Z M 933 294 " clip-rule="nonzero"/></clipPath><clipPath id="1d64bc0b92"><path d="M 830 222 L 982 222 L 982 269.882812 L 830 269.882812 Z M 830 222 " clip-rule="nonzero"/></clipPath><clipPath id="c51422b6b0"><path d="M 821.242188 168 L 878 168 L 878 263 L 821.242188 263 Z M 821.242188 168 " clip-rule="nonzero"/></clipPath><clipPath id="d0e6e1f43a"><path d="M 830 161.132812 L 982 161.132812 L 982 225 L 830 225 Z M 830 161.132812 " clip-rule="nonzero"/></clipPath><clipPath id="c26f5f4379"><path d="M 933 168 L 989.992188 168 L 989.992188 263 L 933 263 Z M 933 168 " clip-rule="nonzero"/></clipPath><clipPath id="a4d9813e88"><path d="M 830 96 L 982 96 L 982 143.671875 L 830 143.671875 Z M 830 96 " clip-rule="nonzero"/></clipPath><clipPath id="12f1c0549a"><path d="M 821.242188 42 L 878 42 L 878 137 L 821.242188 137 Z M 821.242188 42 " clip-rule="nonzero"/></clipPath><clipPath id="a020c2b96c"><path d="M 933 42 L 989.992188 42 L 989.992188 137 L 933 137 Z M 933 42 " clip-rule="nonzero"/></clipPath><clipPath id="b5b4d41c41"><path d="M 1020 728 L 1172 728 L 1172 775.1875 L 1020 775.1875 Z M 1020 728 " clip-rule="nonzero"/></clipPath><clipPath id="940141f8f3"><path d="M 1011.355469 673 L 1068 673 L 1068 768 L 1011.355469 768 Z M 1011.355469 673 " clip-rule="nonzero"/></clipPath><clipPath id="3b67d33057"><path d="M 1020 666.4375 L 1172 666.4375 L 1172 731 L 1020 731 Z M 1020 666.4375 " clip-rule="nonzero"/></clipPath><clipPath id="048086e234"><path d="M 1123 673 L 1180.105469 673 L 1180.105469 768 L 1123 768 Z M 1123 673 " clip-rule="nonzero"/></clipPath><clipPath id="c459297c8e"><path d="M 1020 601 L 1172 601 L 1172 648.976562 L 1020 648.976562 Z M 1020 601 " clip-rule="nonzero"/></clipPath><clipPath id="4eaca616ff"><path d="M 1011.355469 547 L 1068 547 L 1068 642 L 1011.355469 642 Z M 1011.355469 547 " clip-rule="nonzero"/></clipPath><clipPath id="d28fcb1d70"><path d="M 1020 540.226562 L 1172 540.226562 L 1172 604 L 1020 604 Z M 1020 540.226562 " clip-rule="nonzero"/></clipPath><clipPath id="c482a118b2"><path d="M 1123 547 L 1180.105469 547 L 1180.105469 642 L 1123 642 Z M 1123 547 " clip-rule="nonzero"/></clipPath><clipPath id="538a1a44a7"><path d="M 1020 475 L 1172 475 L 1172 522.535156 L 1020 522.535156 Z M 1020 475 " clip-rule="nonzero"/></clipPath><clipPath id="8c4a5a2758"><path d="M 1011.355469 421 L 1068 421 L 1068 516 L 1011.355469 516 Z M 1011.355469 421 " clip-rule="nonzero"/></clipPath><clipPath id="24eb6a5646"><path d="M 1020 413.785156 L 1172 413.785156 L 1172 478 L 1020 478 Z M 1020 413.785156 " clip-rule="nonzero"/></clipPath><clipPath id="787c1381af"><path d="M 1123 421 L 1180.105469 421 L 1180.105469 516 L 1123 516 Z M 1123 421 " clip-rule="nonzero"/></clipPath><clipPath id="9cf004887b"><path d="M 1020 349 L 1172 349 L 1172 396.324219 L 1020 396.324219 Z M 1020 349 " clip-rule="nonzero"/></clipPath><clipPath id="be6517cdea"><path d="M 1011.355469 294 L 1068 294 L 1068 390 L 1011.355469 390 Z M 1011.355469 294 " clip-rule="nonzero"/></clipPath><clipPath id="a114fd761e"><path d="M 1020 287.574219 L 1172 287.574219 L 1172 352 L 1020 352 Z M 1020 287.574219 " clip-rule="nonzero"/></clipPath><clipPath id="88bee0b18d"><path d="M 1123 294 L 1180.105469 294 L 1180.105469 390 L 1123 390 Z M 1123 294 " clip-rule="nonzero"/></clipPath><clipPath id="d00c386111"><path d="M 1020 222 L 1172 222 L 1172 269.882812 L 1020 269.882812 Z M 1020 222 " clip-rule="nonzero"/></clipPath><clipPath id="ab96625bfa"><path d="M 1011.355469 168 L 1068 168 L 1068 263 L 1011.355469 263 Z M 1011.355469 168 " clip-rule="nonzero"/></clipPath><clipPath id="f10da180df"><path d="M 1020 161.132812 L 1172 161.132812 L 1172 225 L 1020 225 Z M 1020 161.132812 " clip-rule="nonzero"/></clipPath><clipPath id="9224d7ef4b"><path d="M 1123 168 L 1180.105469 168 L 1180.105469 263 L 1123 263 Z M 1123 168 " clip-rule="nonzero"/></clipPath><clipPath id="9e9dec0b5a"><path d="M 1020 96 L 1172 96 L 1172 143.671875 L 1020 143.671875 Z M 1020 96 " clip-rule="nonzero"/></clipPath><clipPath id="72adcfdfa6"><path d="M 1011.355469 42 L 1068 42 L 1068 137 L 1011.355469 137 Z M 1011.355469 42 " clip-rule="nonzero"/></clipPath><clipPath id="5b398836a7"><path d="M 1123 42 L 1180.105469 42 L 1180.105469 137 L 1123 137 Z M 1123 42 " clip-rule="nonzero"/></clipPath><clipPath id="04bd0ff438"><path d="M 1210 728 L 1362 728 L 1362 775.285156 L 1210 775.285156 Z M 1210 728 " clip-rule="nonzero"/></clipPath><clipPath id="3310edaace"><path d="M 1201.464844 673 L 1258 673 L 1258 768 L 1201.464844 768 Z M 1201.464844 673 " clip-rule="nonzero"/></clipPath><clipPath id="f037ef4b40"><path d="M 1210 666.535156 L 1362 666.535156 L 1362 731 L 1210 731 Z M 1210 666.535156 " clip-rule="nonzero"/></clipPath><clipPath id="3abeafcd16"><path d="M 1313 673 L 1370.214844 673 L 1370.214844 768 L 1313 768 Z M 1313 673 " clip-rule="nonzero"/></clipPath><clipPath id="18424f9ed5"><path d="M 1201.464844 547 L 1258 547 L 1258 642 L 1201.464844 642 Z M 1201.464844 547 " clip-rule="nonzero"/></clipPath><clipPath id="0bce1b8b42"><path d="M 1210 540.328125 L 1362 540.328125 L 1362 604 L 1210 604 Z M 1210 540.328125 " clip-rule="nonzero"/></clipPath><clipPath id="7f0d9e74d3"><path d="M 1313 547 L 1370.214844 547 L 1370.214844 642 L 1313 642 Z M 1313 547 " clip-rule="nonzero"/></clipPath><clipPath id="8a69d0ce42"><path d="M 1210 475 L 1362 475 L 1362 522.632812 L 1210 522.632812 Z M 1210 475 " clip-rule="nonzero"/></clipPath><clipPath id="9adcd847d5"><path d="M 1201.464844 421 L 1258 421 L 1258 516 L 1201.464844 516 Z M 1201.464844 421 " clip-rule="nonzero"/></clipPath><clipPath id="7ea5d0a738"><path d="M 1313 421 L 1370.214844 421 L 1370.214844 516 L 1313 516 Z M 1313 421 " clip-rule="nonzero"/></clipPath><clipPath id="75a867b9b9"><path d="M 1210 349 L 1362 349 L 1362 396.421875 L 1210 396.421875 Z M 1210 349 " clip-rule="nonzero"/></clipPath><clipPath id="cb882fbe0d"><path d="M 1201.464844 294 L 1258 294 L 1258 390 L 1201.464844 390 Z M 1201.464844 294 " clip-rule="nonzero"/></clipPath><clipPath id="931d620bb1"><path d="M 1210 287.671875 L 1362 287.671875 L 1362 352 L 1210 352 Z M 1210 287.671875 " clip-rule="nonzero"/></clipPath><clipPath id="1d3a1cbbaa"><path d="M 1313 294 L 1370.214844 294 L 1370.214844 390 L 1313 390 Z M 1313 294 " clip-rule="nonzero"/></clipPath><clipPath id="355b434aa3"><path d="M 1210 222 L 1362 222 L 1362 269.980469 L 1210 269.980469 Z M 1210 222 " clip-rule="nonzero"/></clipPath><clipPath id="a69f6a14a0"><path d="M 1201.464844 168 L 1258 168 L 1258 263 L 1201.464844 263 Z M 1201.464844 168 " clip-rule="nonzero"/></clipPath><clipPath id="297cc802b6"><path d="M 1210 161.230469 L 1362 161.230469 L 1362 225 L 1210 225 Z M 1210 161.230469 " clip-rule="nonzero"/></clipPath><clipPath id="ee7eaca617"><path d="M 1313 168 L 1370.214844 168 L 1370.214844 263 L 1313 263 Z M 1313 168 " clip-rule="nonzero"/></clipPath><clipPath id="f46e1e4aa8"><path d="M 1210 96 L 1362 96 L 1362 143.769531 L 1210 143.769531 Z M 1210 96 " clip-rule="nonzero"/></clipPath><clipPath id="535fb65209"><path d="M 1201.464844 42 L 1258 42 L 1258 137 L 1201.464844 137 Z M 1201.464844 42 " clip-rule="nonzero"/></clipPath><clipPath id="0d7a436772"><path d="M 1210 35.019531 L 1362 35.019531 L 1362 99 L 1210 99 Z M 1210 35.019531 " clip-rule="nonzero"/></clipPath><clipPath id="b753f69b46"><path d="M 1313 42 L 1370.214844 42 L 1370.214844 137 L 1313 137 Z M 1313 42 " clip-rule="nonzero"/></clipPath></defs><rect x="-144" width="1728" fill="#ffffff" y="-80.999999" height="971.999992" fill-opacity="1"/><rect x="-144" width="1728" fill="#000000" y="-80.999999" height="971.999992" fill-opacity="1"/><g clip-path="url(#cb51bf5163)"><path fill="#ffffff" d="M 220.730469 773.214844 L 167.773438 729.019531 C 166.222656 727.730469 163.980469 727.730469 162.433594 729.019531 L 148.164062 740.925781 C 146.726562 742.125 144.648438 742.125 143.210938 740.925781 L 128.945312 729.019531 C 127.398438 727.730469 125.152344 727.730469 123.601562 729.019531 L 70.644531 773.214844 C 69.914062 773.820312 70.34375 775.011719 71.292969 775.011719 L 220.085938 775.011719 C 221.03125 775.011719 221.460938 773.820312 220.730469 773.214844 " fill-opacity="1" fill-rule="nonzero"/></g><g clip-path="url(#118f7f87e9)"><path fill="#ffffff" d="M 116.988281 719.042969 L 62.976562 673.972656 C 62.316406 673.421875 61.316406 673.890625 61.316406 674.753906 L 61.316406 766.863281 C 61.316406 767.722656 62.316406 768.195312 62.976562 767.648438 L 116.988281 722.574219 C 118.089844 721.65625 118.089844 719.960938 116.988281 719.042969 " fill-opacity="1" fill-rule="nonzero"/></g><g clip-path="url(#b4bfed0017)"><path fill="#ffffff" d="M 70.644531 668.402344 L 143.660156 729.335938 C 144.835938 730.316406 146.539062 730.316406 147.714844 729.335938 L 220.730469 668.402344 C 221.460938 667.796875 221.03125 666.605469 220.085938 666.605469 L 71.292969 666.605469 C 70.34375 666.605469 69.914062 667.796875 70.644531 668.402344 " fill-opacity="1" fill-rule="nonzero"/></g><g clip-path="url(#6b98ec8244)"><path fill="#ffffff" d="M 228.402344 673.972656 L 174.390625 719.042969 C 173.289062 719.960938 173.289062 721.65625 174.390625 722.574219 L 228.402344 767.648438 C 229.058594 768.195312 230.058594 767.726562 230.058594 766.863281 L 230.058594 674.753906 C 230.058594 673.890625 229.058594 673.421875 228.402344 673.972656 " fill-opacity="1" fill-rule="nonzero"/></g><g clip-path="url(#240d8df674)"><path fill="#ffffff" d="M 220.730469 647.003906 L 167.773438 602.808594 C 166.222656 601.519531 163.980469 601.519531 162.433594 602.808594 L 148.164062 614.714844 C 146.726562 615.914062 144.648438 615.914062 143.210938 614.714844 L 128.945312 602.808594 C 127.398438 601.519531 125.152344 601.519531 123.601562 602.808594 L 70.644531 647.003906 C 69.914062 647.613281 70.34375 648.800781 71.292969 648.800781 L 220.085938 648.800781 C 221.03125 648.800781 221.460938 647.613281 220.730469 647.003906 " fill-opacity="1" fill-rule="nonzero"/></g><g clip-path="url(#d5125b1fb2)"><path fill="#ffffff" d="M 116.988281 592.832031 L 62.976562 547.761719 C 62.316406 547.210938 61.316406 547.683594 61.316406 548.542969 L 61.316406 640.652344 C 61.316406 641.515625 62.316406 641.984375 62.976562 641.4375 L 116.988281 596.363281 C 118.089844 595.445312 118.089844 593.75 116.988281 592.832031 " fill-opacity="1" fill-rule="nonzero"/></g><g clip-path="url(#6c1dce76c6)"><path fill="#ffffff" d="M 70.644531 542.195312 L 143.660156 603.125 C 144.835938 604.105469 146.539062 604.105469 147.714844 603.125 L 220.730469 542.195312 C 221.460938 541.585938 221.03125 540.394531 220.085938 540.394531 L 71.292969 540.394531 C 70.34375 540.394531 69.914062 541.585938 70.644531 542.195312 " fill-opacity="1" fill-rule="nonzero"/></g><g clip-path="url(#905f01f766)"><path fill="#ffffff" d="M 228.402344 547.761719 L 174.390625 592.832031 C 173.289062 593.75 173.289062 595.445312 174.390625 596.363281 L 228.402344 641.4375 C 229.058594 641.984375 230.058594 641.515625 230.058594 640.652344 L 230.058594 548.542969 C 230.058594 547.683594 229.058594 547.210938 228.402344 547.761719 " fill-opacity="1" fill-rule="nonzero"/></g><g clip-path="url(#ad868ff3cd)"><path fill="#ffffff" d="M 220.730469 520.558594 L 167.773438 476.367188 C 166.222656 475.074219 163.980469 475.074219 162.433594 476.367188 L 148.164062 488.273438 C 146.726562 489.46875 144.648438 489.46875 143.210938 488.273438 L 128.945312 476.367188 C 127.398438 475.074219 125.152344 475.074219 123.601562 476.367188 L 70.644531 520.558594 C 69.914062 521.167969 70.34375 522.359375 71.292969 522.359375 L 220.085938 522.359375 C 221.03125 522.359375 221.460938 521.167969 220.730469 520.558594 " fill-opacity="1" fill-rule="nonzero"/></g><g clip-path="url(#cdddaf72f9)"><path fill="#ffffff" d="M 116.988281 466.390625 L 62.976562 421.316406 C 62.316406 420.765625 61.316406 421.238281 61.316406 422.101562 L 61.316406 514.207031 C 61.316406 515.070312 62.316406 515.542969 62.976562 514.992188 L 116.988281 469.921875 C 118.089844 469.003906 118.089844 467.304688 116.988281 466.390625 " fill-opacity="1" fill-rule="nonzero"/></g><g clip-path="url(#be18bfaa62)"><path fill="#ffffff" d="M 70.644531 415.75 L 143.660156 476.679688 C 144.835938 477.660156 146.539062 477.660156 147.714844 476.679688 L 220.730469 415.75 C 221.460938 415.140625 221.03125 413.949219 220.085938 413.949219 L 71.292969 413.949219 C 70.34375 413.949219 69.914062 415.140625 70.644531 415.75 " fill-opacity="1" fill-rule="nonzero"/></g><g clip-path="url(#ff0cd90926)"><path fill="#ffffff" d="M 228.402344 421.316406 L 174.390625 466.390625 C 173.289062 467.304688 173.289062 469.003906 174.390625 469.921875 L 228.402344 514.992188 C 229.058594 515.542969 230.058594 515.070312 230.058594 514.210938 L 230.058594 422.101562 C 230.058594 421.238281 229.058594 420.765625 228.402344 421.316406 " fill-opacity="1" fill-rule="nonzero"/></g><g clip-path="url(#9cf77d3417)"><path fill="#ffffff" d="M 220.730469 394.351562 L 167.773438 350.15625 C 166.222656 348.863281 163.980469 348.863281 162.433594 350.15625 L 148.164062 362.0625 C 146.726562 363.261719 144.648438 363.261719 143.210938 362.0625 L 128.945312 350.15625 C 127.398438 348.863281 125.152344 348.863281 123.601562 350.15625 L 70.644531 394.351562 C 69.914062 394.957031 70.34375 396.148438 71.292969 396.148438 L 220.085938 396.148438 C 221.03125 396.148438 221.460938 394.957031 220.730469 394.351562 " fill-opacity="1" fill-rule="nonzero"/></g><g clip-path="url(#e911959652)"><path fill="#ffffff" d="M 116.988281 340.179688 L 62.976562 295.109375 C 62.316406 294.558594 61.316406 295.027344 61.316406 295.890625 L 61.316406 388 C 61.316406 388.859375 62.316406 389.332031 62.976562 388.78125 L 116.988281 343.710938 C 118.089844 342.792969 118.089844 341.097656 116.988281 340.179688 " fill-opacity="1" fill-rule="nonzero"/></g><g clip-path="url(#8550be4f18)"><path fill="#ffffff" d="M 70.644531 289.539062 L 143.660156 350.472656 C 144.835938 351.449219 146.539062 351.449219 147.714844 350.472656 L 220.730469 289.539062 C 221.460938 288.933594 221.03125 287.742188 220.085938 287.742188 L 71.292969 287.742188 C 70.34375 287.742188 69.914062 288.933594 70.644531 289.539062 " fill-opacity="1" fill-rule="nonzero"/></g><g clip-path="url(#eeb049fdc0)"><path fill="#ffffff" d="M 228.402344 295.109375 L 174.390625 340.179688 C 173.289062 341.097656 173.289062 342.792969 174.390625 343.710938 L 228.402344 388.78125 C 229.058594 389.332031 230.058594 388.863281 230.058594 388 L 230.058594 295.890625 C 230.058594 295.027344 229.058594 294.558594 228.402344 295.109375 " fill-opacity="1" fill-rule="nonzero"/></g><g clip-path="url(#fec34f810c)"><path fill="#ffffff" d="M 220.730469 267.90625 L 167.773438 223.710938 C 166.222656 222.421875 163.980469 222.421875 162.433594 223.710938 L 148.164062 235.617188 C 146.726562 236.816406 144.648438 236.816406 143.210938 235.617188 L 128.945312 223.710938 C 127.398438 222.421875 125.152344 222.421875 123.601562 223.710938 L 70.644531 267.90625 C 69.914062 268.515625 70.34375 269.707031 71.292969 269.707031 L 220.085938 269.707031 C 221.03125 269.707031 221.460938 268.515625 220.730469 267.90625 " fill-opacity="1" fill-rule="nonzero"/></g><g clip-path="url(#094cb6fccc)"><path fill="#ffffff" d="M 116.988281 213.734375 L 62.976562 168.664062 C 62.316406 168.113281 61.316406 168.585938 61.316406 169.445312 L 61.316406 261.554688 C 61.316406 262.417969 62.316406 262.886719 62.976562 262.339844 L 116.988281 217.269531 C 118.089844 216.347656 118.089844 214.652344 116.988281 213.734375 " fill-opacity="1" fill-rule="nonzero"/></g><g clip-path="url(#aa86f566a2)"><path fill="#ffffff" d="M 70.644531 163.097656 L 143.660156 224.027344 C 144.835938 225.007812 146.539062 225.007812 147.714844 224.027344 L 220.730469 163.097656 C 221.460938 162.488281 221.03125 161.296875 220.085938 161.296875 L 71.292969 161.296875 C 70.34375 161.296875 69.914062 162.488281 70.644531 163.097656 " fill-opacity="1" fill-rule="nonzero"/></g><g clip-path="url(#1c83323e2c)"><path fill="#ffffff" d="M 228.402344 168.664062 L 174.390625 213.734375 C 173.289062 214.652344 173.289062 216.347656 174.390625 217.269531 L 228.402344 262.339844 C 229.058594 262.886719 230.058594 262.417969 230.058594 261.558594 L 230.058594 169.445312 C 230.058594 168.585938 229.058594 168.113281 228.402344 168.664062 " fill-opacity="1" fill-rule="nonzero"/></g><g clip-path="url(#ad260aae15)"><path fill="#ffffff" d="M 220.730469 141.695312 L 167.773438 97.503906 C 166.222656 96.210938 163.980469 96.210938 162.433594 97.503906 L 148.164062 109.410156 C 146.726562 110.605469 144.648438 110.605469 143.210938 109.410156 L 128.945312 97.503906 C 127.398438 96.210938 125.152344 96.210938 123.601562 97.503906 L 70.644531 141.695312 C 69.914062 142.304688 70.34375 143.496094 71.292969 143.496094 L 220.085938 143.496094 C 221.03125 143.496094 221.460938 142.304688 220.730469 141.695312 " fill-opacity="1" fill-rule="nonzero"/></g><g clip-path="url(#4f85eb9203)"><path fill="#ffffff" d="M 116.988281 87.527344 L 62.976562 42.453125 C 62.316406 41.902344 61.316406 42.375 61.316406 43.238281 L 61.316406 135.34375 C 61.316406 136.207031 62.316406 136.679688 62.976562 136.128906 L 116.988281 91.058594 C 118.089844 90.140625 118.089844 88.441406 116.988281 87.527344 " fill-opacity="1" fill-rule="nonzero"/></g><path fill="#ffffff" d="M 70.644531 36.886719 L 143.660156 97.816406 C 144.835938 98.796875 146.539062 98.796875 147.714844 97.816406 L 220.730469 36.886719 C 221.460938 36.277344 221.03125 35.085938 220.085938 35.085938 L 71.292969 35.085938 C 70.34375 35.085938 69.914062 36.277344 70.644531 36.886719 " fill-opacity="1" fill-rule="nonzero"/><g clip-path="url(#43c487538e)"><path fill="#ffffff" d="M 228.402344 42.453125 L 174.390625 87.527344 C 173.289062 88.441406 173.289062 90.140625 174.390625 91.058594 L 228.402344 136.128906 C 229.058594 136.679688 230.058594 136.207031 230.058594 135.347656 L 230.058594 43.238281 C 230.058594 42.375 229.058594 41.902344 228.402344 42.453125 " fill-opacity="1" fill-rule="nonzero"/></g><g clip-path="url(#a76d48c006)"><path fill="#ffffff" d="M 410.59375 773.3125 L 357.632812 729.117188 C 356.085938 727.828125 353.839844 727.828125 352.292969 729.117188 L 338.027344 741.023438 C 336.589844 742.222656 334.507812 742.222656 333.074219 741.023438 L 318.804688 729.117188 C 317.257812 727.828125 315.011719 727.828125 313.464844 729.117188 L 260.503906 773.3125 C 259.777344 773.921875 260.203125 775.109375 261.152344 775.109375 L 409.945312 775.109375 C 410.894531 775.109375 411.320312 773.921875 410.59375 773.3125 " fill-opacity="1" fill-rule="nonzero"/></g><g clip-path="url(#2ad581d12a)"><path fill="#ffffff" d="M 306.847656 719.140625 L 252.835938 674.070312 C 252.179688 673.519531 251.179688 673.992188 251.179688 674.851562 L 251.179688 766.960938 C 251.179688 767.824219 252.179688 768.292969 252.835938 767.746094 L 306.847656 722.671875 C 307.949219 721.753906 307.949219 720.058594 306.847656 719.140625 " fill-opacity="1" fill-rule="nonzero"/></g><g clip-path="url(#46e132d106)"><path fill="#ffffff" d="M 260.503906 668.503906 L 333.523438 729.433594 C 334.699219 730.414062 336.402344 730.414062 337.574219 729.433594 L 410.59375 668.503906 C 411.320312 667.894531 410.894531 666.703125 409.945312 666.703125 L 261.152344 666.703125 C 260.203125 666.703125 259.777344 667.894531 260.503906 668.503906 " fill-opacity="1" fill-rule="nonzero"/></g><g clip-path="url(#f923f04b25)"><path fill="#ffffff" d="M 418.261719 674.070312 L 364.25 719.140625 C 363.148438 720.058594 363.148438 721.753906 364.25 722.671875 L 418.261719 767.746094 C 418.917969 768.292969 419.917969 767.824219 419.917969 766.960938 L 419.917969 674.851562 C 419.917969 673.992188 418.917969 673.519531 418.261719 674.070312 " fill-opacity="1" fill-rule="nonzero"/></g><path fill="#ffffff" d="M 410.59375 647.101562 L 357.632812 602.910156 C 356.085938 601.617188 353.839844 601.617188 352.292969 602.910156 L 338.027344 614.816406 C 336.589844 616.011719 334.507812 616.011719 333.074219 614.816406 L 318.804688 602.910156 C 317.257812 601.617188 315.011719 601.617188 313.464844 602.910156 L 260.503906 647.101562 C 259.777344 647.710938 260.203125 648.902344 261.152344 648.902344 L 409.945312 648.902344 C 410.894531 648.902344 411.320312 647.710938 410.59375 647.101562 " fill-opacity="1" fill-rule="nonzero"/><g clip-path="url(#e685041fb0)"><path fill="#ffffff" d="M 306.847656 592.929688 L 252.835938 547.859375 C 252.179688 547.308594 251.179688 547.78125 251.179688 548.640625 L 251.179688 640.75 C 251.179688 641.613281 252.179688 642.082031 252.835938 641.535156 L 306.847656 596.464844 C 307.949219 595.542969 307.949219 593.847656 306.847656 592.929688 " fill-opacity="1" fill-rule="nonzero"/></g><g clip-path="url(#b195ff45ad)"><path fill="#ffffff" d="M 260.503906 542.292969 L 333.523438 603.222656 C 334.699219 604.203125 336.402344 604.203125 337.574219 603.222656 L 410.59375 542.292969 C 411.320312 541.683594 410.894531 540.492188 409.945312 540.492188 L 261.152344 540.492188 C 260.203125 540.492188 259.777344 541.683594 260.503906 542.292969 " fill-opacity="1" fill-rule="nonzero"/></g><g clip-path="url(#2cc2197832)"><path fill="#ffffff" d="M 418.261719 547.859375 L 364.25 592.929688 C 363.148438 593.847656 363.148438 595.542969 364.25 596.464844 L 418.261719 641.535156 C 418.917969 642.082031 419.917969 641.613281 419.917969 640.753906 L 419.917969 548.640625 C 419.917969 547.78125 418.917969 547.308594 418.261719 547.859375 " fill-opacity="1" fill-rule="nonzero"/></g><g clip-path="url(#e23ab39dae)"><path fill="#ffffff" d="M 410.59375 520.660156 L 357.632812 476.464844 C 356.085938 475.171875 353.839844 475.171875 352.292969 476.464844 L 338.027344 488.371094 C 336.589844 489.570312 334.507812 489.570312 333.074219 488.371094 L 318.804688 476.464844 C 317.257812 475.171875 315.011719 475.171875 313.464844 476.464844 L 260.503906 520.660156 C 259.777344 521.265625 260.203125 522.457031 261.152344 522.457031 L 409.945312 522.457031 C 410.894531 522.457031 411.320312 521.265625 410.59375 520.660156 " fill-opacity="1" fill-rule="nonzero"/></g><g clip-path="url(#b0fd123fd7)"><path fill="#ffffff" d="M 306.847656 466.488281 L 252.835938 421.417969 C 252.179688 420.867188 251.179688 421.335938 251.179688 422.199219 L 251.179688 514.308594 C 251.179688 515.167969 252.179688 515.640625 252.835938 515.089844 L 306.847656 470.019531 C 307.949219 469.101562 307.949219 467.40625 306.847656 466.488281 " fill-opacity="1" fill-rule="nonzero"/></g><path fill="#ffffff" d="M 260.503906 415.847656 L 333.523438 476.78125 C 334.699219 477.757812 336.402344 477.757812 337.574219 476.78125 L 410.59375 415.847656 C 411.320312 415.242188 410.894531 414.046875 409.945312 414.046875 L 261.152344 414.046875 C 260.203125 414.046875 259.777344 415.242188 260.503906 415.847656 " fill-opacity="1" fill-rule="nonzero"/><g clip-path="url(#16c6c497f5)"><path fill="#ffffff" d="M 418.261719 421.417969 L 364.25 466.488281 C 363.148438 467.40625 363.148438 469.101562 364.25 470.019531 L 418.261719 515.089844 C 418.917969 515.640625 419.917969 515.171875 419.917969 514.308594 L 419.917969 422.199219 C 419.917969 421.335938 418.917969 420.867188 418.261719 421.417969 " fill-opacity="1" fill-rule="nonzero"/></g><g clip-path="url(#86dc82d596)"><path fill="#ffffff" d="M 410.59375 394.449219 L 357.632812 350.253906 C 356.085938 348.964844 353.839844 348.964844 352.292969 350.253906 L 338.027344 362.160156 C 336.589844 363.359375 334.507812 363.359375 333.074219 362.160156 L 318.804688 350.253906 C 317.257812 348.964844 315.011719 348.964844 313.464844 350.253906 L 260.503906 394.449219 C 259.777344 395.058594 260.203125 396.246094 261.152344 396.246094 L 409.945312 396.246094 C 410.894531 396.246094 411.320312 395.058594 410.59375 394.449219 " fill-opacity="1" fill-rule="nonzero"/></g><g clip-path="url(#99a89b73f8)"><path fill="#ffffff" d="M 306.847656 340.277344 L 252.835938 295.207031 C 252.179688 294.65625 251.179688 295.128906 251.179688 295.988281 L 251.179688 388.097656 C 251.179688 388.957031 252.179688 389.429688 252.835938 388.882812 L 306.847656 343.808594 C 307.949219 342.890625 307.949219 341.195312 306.847656 340.277344 " fill-opacity="1" fill-rule="nonzero"/></g><g clip-path="url(#406d167bea)"><path fill="#ffffff" d="M 260.503906 289.640625 L 333.523438 350.570312 C 334.699219 351.550781 336.402344 351.550781 337.574219 350.570312 L 410.59375 289.640625 C 411.320312 289.03125 410.894531 287.839844 409.945312 287.839844 L 261.152344 287.839844 C 260.203125 287.839844 259.777344 289.03125 260.503906 289.640625 " fill-opacity="1" fill-rule="nonzero"/></g><g clip-path="url(#836d0c2a6f)"><path fill="#ffffff" d="M 418.261719 295.207031 L 364.25 340.277344 C 363.148438 341.195312 363.148438 342.890625 364.25 343.808594 L 418.261719 388.882812 C 418.917969 389.429688 419.917969 388.960938 419.917969 388.097656 L 419.917969 295.988281 C 419.917969 295.128906 418.917969 294.65625 418.261719 295.207031 " fill-opacity="1" fill-rule="nonzero"/></g><g clip-path="url(#c57896d56c)"><path fill="#ffffff" d="M 410.59375 268.003906 L 357.632812 223.8125 C 356.085938 222.519531 353.839844 222.519531 352.292969 223.8125 L 338.027344 235.71875 C 336.589844 236.914062 334.507812 236.914062 333.074219 235.71875 L 318.804688 223.8125 C 317.257812 222.519531 315.011719 222.519531 313.464844 223.8125 L 260.503906 268.003906 C 259.777344 268.613281 260.203125 269.804688 261.152344 269.804688 L 409.945312 269.804688 C 410.894531 269.804688 411.320312 268.613281 410.59375 268.003906 " fill-opacity="1" fill-rule="nonzero"/></g><g clip-path="url(#c37c30ff97)"><path fill="#ffffff" d="M 306.847656 213.835938 L 252.835938 168.761719 C 252.179688 168.210938 251.179688 168.683594 251.179688 169.546875 L 251.179688 261.652344 C 251.179688 262.515625 252.179688 262.988281 252.835938 262.4375 L 306.847656 217.367188 C 307.949219 216.449219 307.949219 214.75 306.847656 213.835938 " fill-opacity="1" fill-rule="nonzero"/></g><g clip-path="url(#6f6e58f350)"><path fill="#ffffff" d="M 260.503906 163.195312 L 333.523438 224.125 C 334.699219 225.105469 336.402344 225.105469 337.574219 224.125 L 410.59375 163.195312 C 411.320312 162.585938 410.894531 161.394531 409.945312 161.394531 L 261.152344 161.394531 C 260.203125 161.394531 259.777344 162.585938 260.503906 163.195312 " fill-opacity="1" fill-rule="nonzero"/></g><g clip-path="url(#3f4b4bfe70)"><path fill="#ffffff" d="M 418.261719 168.761719 L 364.25 213.835938 C 363.148438 214.75 363.148438 216.449219 364.25 217.367188 L 418.261719 262.4375 C 418.917969 262.988281 419.917969 262.515625 419.917969 261.65625 L 419.917969 169.546875 C 419.917969 168.683594 418.917969 168.210938 418.261719 168.761719 " fill-opacity="1" fill-rule="nonzero"/></g><g clip-path="url(#ca8c12a852)"><path fill="#ffffff" d="M 410.59375 141.796875 L 357.632812 97.601562 C 356.085938 96.308594 353.839844 96.308594 352.292969 97.601562 L 338.027344 109.507812 C 336.589844 110.707031 334.507812 110.707031 333.074219 109.507812 L 318.804688 97.601562 C 317.257812 96.308594 315.011719 96.308594 313.464844 97.601562 L 260.503906 141.796875 C 259.777344 142.402344 260.203125 143.59375 261.152344 143.59375 L 409.945312 143.59375 C 410.894531 143.59375 411.320312 142.402344 410.59375 141.796875 " fill-opacity="1" fill-rule="nonzero"/></g><g clip-path="url(#c31977d6d7)"><path fill="#ffffff" d="M 306.847656 87.625 L 252.835938 42.554688 C 252.179688 42.003906 251.179688 42.472656 251.179688 43.335938 L 251.179688 135.445312 C 251.179688 136.304688 252.179688 136.777344 252.835938 136.226562 L 306.847656 91.15625 C 307.949219 90.238281 307.949219 88.542969 306.847656 87.625 " fill-opacity="1" fill-rule="nonzero"/></g><g clip-path="url(#987fb3ecf5)"><path fill="#ffffff" d="M 260.503906 36.984375 L 333.523438 97.914062 C 334.699219 98.894531 336.402344 98.894531 337.574219 97.914062 L 410.59375 36.984375 C 411.320312 36.378906 410.894531 35.183594 409.945312 35.183594 L 261.152344 35.183594 C 260.203125 35.183594 259.777344 36.378906 260.503906 36.984375 " fill-opacity="1" fill-rule="nonzero"/></g><g clip-path="url(#88e8e4d709)"><path fill="#ffffff" d="M 418.261719 42.554688 L 364.25 87.625 C 363.148438 88.542969 363.148438 90.238281 364.25 91.15625 L 418.261719 136.226562 C 418.917969 136.777344 419.917969 136.308594 419.917969 135.445312 L 419.917969 43.335938 C 419.917969 42.472656 418.917969 42.003906 418.261719 42.554688 " fill-opacity="1" fill-rule="nonzero"/></g><g clip-path="url(#80b7e8e734)"><path fill="#ffffff" d="M 600.707031 773.3125 L 547.746094 729.117188 C 546.199219 727.828125 543.953125 727.828125 542.40625 729.117188 L 528.136719 741.023438 C 526.703125 742.222656 524.621094 742.222656 523.183594 741.023438 L 508.917969 729.117188 C 507.371094 727.828125 505.125 727.828125 503.578125 729.117188 L 450.617188 773.3125 C 449.886719 773.921875 450.316406 775.109375 451.265625 775.109375 L 600.058594 775.109375 C 601.003906 775.109375 601.433594 773.921875 600.707031 773.3125 " fill-opacity="1" fill-rule="nonzero"/></g><g clip-path="url(#5a4fef08d8)"><path fill="#ffffff" d="M 496.960938 719.140625 L 442.949219 674.070312 C 442.289062 673.519531 441.289062 673.992188 441.289062 674.851562 L 441.289062 766.960938 C 441.289062 767.824219 442.289062 768.292969 442.949219 767.746094 L 496.960938 722.671875 C 498.0625 721.753906 498.0625 720.058594 496.960938 719.140625 " fill-opacity="1" fill-rule="nonzero"/></g><g clip-path="url(#0021cfd513)"><path fill="#ffffff" d="M 450.617188 668.503906 L 523.632812 729.433594 C 524.808594 730.414062 526.511719 730.414062 527.6875 729.433594 L 600.707031 668.503906 C 601.433594 667.894531 601.003906 666.703125 600.058594 666.703125 L 451.265625 666.703125 C 450.316406 666.703125 449.886719 667.894531 450.617188 668.503906 " fill-opacity="1" fill-rule="nonzero"/></g><g clip-path="url(#c789c0f68e)"><path fill="#ffffff" d="M 608.375 674.070312 L 554.363281 719.140625 C 553.261719 720.058594 553.261719 721.753906 554.363281 722.671875 L 608.375 767.746094 C 609.03125 768.292969 610.03125 767.824219 610.03125 766.960938 L 610.03125 674.851562 C 610.03125 673.992188 609.03125 673.519531 608.375 674.070312 " fill-opacity="1" fill-rule="nonzero"/></g><path fill="#ffffff" d="M 600.707031 647.101562 L 547.746094 602.910156 C 546.199219 601.617188 543.953125 601.617188 542.40625 602.910156 L 528.136719 614.816406 C 526.703125 616.011719 524.621094 616.011719 523.183594 614.816406 L 508.917969 602.910156 C 507.371094 601.617188 505.125 601.617188 503.578125 602.910156 L 450.617188 647.101562 C 449.886719 647.710938 450.316406 648.902344 451.265625 648.902344 L 600.058594 648.902344 C 601.003906 648.902344 601.433594 647.710938 600.707031 647.101562 " fill-opacity="1" fill-rule="nonzero"/><g clip-path="url(#8c32df902f)"><path fill="#ffffff" d="M 496.960938 592.929688 L 442.949219 547.859375 C 442.289062 547.308594 441.289062 547.78125 441.289062 548.640625 L 441.289062 640.75 C 441.289062 641.613281 442.289062 642.082031 442.949219 641.535156 L 496.960938 596.464844 C 498.0625 595.542969 498.0625 593.847656 496.960938 592.929688 " fill-opacity="1" fill-rule="nonzero"/></g><g clip-path="url(#f0d17cf224)"><path fill="#ffffff" d="M 450.617188 542.292969 L 523.632812 603.222656 C 524.808594 604.203125 526.511719 604.203125 527.6875 603.222656 L 600.707031 542.292969 C 601.433594 541.683594 601.003906 540.492188 600.058594 540.492188 L 451.265625 540.492188 C 450.316406 540.492188 449.886719 541.683594 450.617188 542.292969 " fill-opacity="1" fill-rule="nonzero"/></g><g clip-path="url(#44aee1b92e)"><path fill="#ffffff" d="M 608.375 547.859375 L 554.363281 592.929688 C 553.261719 593.847656 553.261719 595.542969 554.363281 596.464844 L 608.375 641.535156 C 609.03125 642.082031 610.03125 641.613281 610.03125 640.753906 L 610.03125 548.640625 C 610.03125 547.78125 609.03125 547.308594 608.375 547.859375 " fill-opacity="1" fill-rule="nonzero"/></g><g clip-path="url(#3714502715)"><path fill="#ffffff" d="M 600.707031 520.660156 L 547.746094 476.464844 C 546.199219 475.171875 543.953125 475.171875 542.40625 476.464844 L 528.136719 488.371094 C 526.703125 489.570312 524.621094 489.570312 523.183594 488.371094 L 508.917969 476.464844 C 507.371094 475.171875 505.125 475.171875 503.578125 476.464844 L 450.617188 520.660156 C 449.886719 521.265625 450.316406 522.457031 451.265625 522.457031 L 600.058594 522.457031 C 601.003906 522.457031 601.433594 521.265625 600.707031 520.660156 " fill-opacity="1" fill-rule="nonzero"/></g><g clip-path="url(#fa7d3d3037)"><path fill="#ffffff" d="M 496.960938 466.488281 L 442.949219 421.417969 C 442.289062 420.867188 441.289062 421.335938 441.289062 422.199219 L 441.289062 514.308594 C 441.289062 515.167969 442.289062 515.640625 442.949219 515.089844 L 496.960938 470.019531 C 498.0625 469.101562 498.0625 467.40625 496.960938 466.488281 " fill-opacity="1" fill-rule="nonzero"/></g><path fill="#ffffff" d="M 450.617188 415.847656 L 523.632812 476.78125 C 524.808594 477.757812 526.511719 477.757812 527.6875 476.78125 L 600.707031 415.847656 C 601.433594 415.242188 601.003906 414.046875 600.058594 414.046875 L 451.265625 414.046875 C 450.316406 414.046875 449.886719 415.242188 450.617188 415.847656 " fill-opacity="1" fill-rule="nonzero"/><g clip-path="url(#158b277f5e)"><path fill="#ffffff" d="M 608.375 421.417969 L 554.363281 466.488281 C 553.261719 467.40625 553.261719 469.101562 554.363281 470.019531 L 608.375 515.089844 C 609.03125 515.640625 610.03125 515.171875 610.03125 514.308594 L 610.03125 422.199219 C 610.03125 421.335938 609.03125 420.867188 608.375 421.417969 " fill-opacity="1" fill-rule="nonzero"/></g><g clip-path="url(#7671871724)"><path fill="#ffffff" d="M 600.707031 394.449219 L 547.746094 350.253906 C 546.199219 348.964844 543.953125 348.964844 542.40625 350.253906 L 528.136719 362.160156 C 526.703125 363.359375 524.621094 363.359375 523.183594 362.160156 L 508.917969 350.253906 C 507.371094 348.964844 505.125 348.964844 503.578125 350.253906 L 450.617188 394.449219 C 449.886719 395.058594 450.316406 396.246094 451.265625 396.246094 L 600.058594 396.246094 C 601.003906 396.246094 601.433594 395.058594 600.707031 394.449219 " fill-opacity="1" fill-rule="nonzero"/></g><g clip-path="url(#b9cf65324b)"><path fill="#ffffff" d="M 496.960938 340.277344 L 442.949219 295.207031 C 442.289062 294.65625 441.289062 295.128906 441.289062 295.988281 L 441.289062 388.097656 C 441.289062 388.957031 442.289062 389.429688 442.949219 388.882812 L 496.960938 343.808594 C 498.0625 342.890625 498.0625 341.195312 496.960938 340.277344 " fill-opacity="1" fill-rule="nonzero"/></g><g clip-path="url(#0bc77a6c6a)"><path fill="#ffffff" d="M 450.617188 289.640625 L 523.632812 350.570312 C 524.808594 351.550781 526.511719 351.550781 527.6875 350.570312 L 600.707031 289.640625 C 601.433594 289.03125 601.003906 287.839844 600.058594 287.839844 L 451.265625 287.839844 C 450.316406 287.839844 449.886719 289.03125 450.617188 289.640625 " fill-opacity="1" fill-rule="nonzero"/></g><g clip-path="url(#28cc661166)"><path fill="#ffffff" d="M 608.375 295.207031 L 554.363281 340.277344 C 553.261719 341.195312 553.261719 342.890625 554.363281 343.808594 L 608.375 388.882812 C 609.03125 389.429688 610.03125 388.960938 610.03125 388.097656 L 610.03125 295.988281 C 610.03125 295.128906 609.03125 294.65625 608.375 295.207031 " fill-opacity="1" fill-rule="nonzero"/></g><g clip-path="url(#0d4d362564)"><path fill="#ffffff" d="M 600.707031 268.003906 L 547.746094 223.8125 C 546.199219 222.519531 543.953125 222.519531 542.40625 223.8125 L 528.136719 235.71875 C 526.703125 236.914062 524.621094 236.914062 523.183594 235.71875 L 508.917969 223.8125 C 507.371094 222.519531 505.125 222.519531 503.578125 223.8125 L 450.617188 268.003906 C 449.886719 268.613281 450.316406 269.804688 451.265625 269.804688 L 600.058594 269.804688 C 601.003906 269.804688 601.433594 268.613281 600.707031 268.003906 " fill-opacity="1" fill-rule="nonzero"/></g><g clip-path="url(#5642de4eca)"><path fill="#ffffff" d="M 496.960938 213.835938 L 442.949219 168.761719 C 442.289062 168.210938 441.289062 168.683594 441.289062 169.546875 L 441.289062 261.652344 C 441.289062 262.515625 442.289062 262.988281 442.949219 262.4375 L 496.960938 217.367188 C 498.0625 216.449219 498.0625 214.75 496.960938 213.835938 " fill-opacity="1" fill-rule="nonzero"/></g><g clip-path="url(#04ae2982e8)"><path fill="#ffffff" d="M 450.617188 163.195312 L 523.632812 224.125 C 524.808594 225.105469 526.511719 225.105469 527.6875 224.125 L 600.707031 163.195312 C 601.433594 162.585938 601.003906 161.394531 600.058594 161.394531 L 451.265625 161.394531 C 450.316406 161.394531 449.886719 162.585938 450.617188 163.195312 " fill-opacity="1" fill-rule="nonzero"/></g><g clip-path="url(#10ec0f43b4)"><path fill="#ffffff" d="M 608.375 168.761719 L 554.363281 213.835938 C 553.261719 214.75 553.261719 216.449219 554.363281 217.367188 L 608.375 262.4375 C 609.03125 262.988281 610.03125 262.515625 610.03125 261.65625 L 610.03125 169.546875 C 610.03125 168.683594 609.03125 168.210938 608.375 168.761719 " fill-opacity="1" fill-rule="nonzero"/></g><g clip-path="url(#49aba673ca)"><path fill="#ffffff" d="M 600.707031 141.796875 L 547.746094 97.601562 C 546.199219 96.308594 543.953125 96.308594 542.40625 97.601562 L 528.136719 109.507812 C 526.703125 110.707031 524.621094 110.707031 523.183594 109.507812 L 508.917969 97.601562 C 507.371094 96.308594 505.125 96.308594 503.578125 97.601562 L 450.617188 141.796875 C 449.886719 142.402344 450.316406 143.59375 451.265625 143.59375 L 600.058594 143.59375 C 601.003906 143.59375 601.433594 142.402344 600.707031 141.796875 " fill-opacity="1" fill-rule="nonzero"/></g><g clip-path="url(#8b115efcc9)"><path fill="#ffffff" d="M 496.960938 87.625 L 442.949219 42.554688 C 442.289062 42.003906 441.289062 42.472656 441.289062 43.335938 L 441.289062 135.445312 C 441.289062 136.304688 442.289062 136.777344 442.949219 136.226562 L 496.960938 91.15625 C 498.0625 90.238281 498.0625 88.542969 496.960938 87.625 " fill-opacity="1" fill-rule="nonzero"/></g><g clip-path="url(#e14ba04187)"><path fill="#ffffff" d="M 450.617188 36.984375 L 523.632812 97.914062 C 524.808594 98.894531 526.511719 98.894531 527.6875 97.914062 L 600.707031 36.984375 C 601.433594 36.378906 601.003906 35.183594 600.058594 35.183594 L 451.265625 35.183594 C 450.316406 35.183594 449.886719 36.378906 450.617188 36.984375 " fill-opacity="1" fill-rule="nonzero"/></g><g clip-path="url(#2a35bb19c9)"><path fill="#ffffff" d="M 608.375 42.554688 L 554.363281 87.625 C 553.261719 88.542969 553.261719 90.238281 554.363281 91.15625 L 608.375 136.226562 C 609.03125 136.777344 610.03125 136.308594 610.03125 135.445312 L 610.03125 43.335938 C 610.03125 42.472656 609.03125 42.003906 608.375 42.554688 " fill-opacity="1" fill-rule="nonzero"/></g><path fill="#ffffff" d="M 790.816406 773.117188 L 737.859375 728.921875 C 736.308594 727.628906 734.066406 727.628906 732.519531 728.921875 L 718.25 740.828125 C 716.8125 742.023438 714.734375 742.023438 713.296875 740.828125 L 699.03125 728.921875 C 697.484375 727.628906 695.238281 727.628906 693.6875 728.921875 L 640.730469 773.117188 C 640 773.722656 640.429688 774.914062 641.378906 774.914062 L 790.171875 774.914062 C 791.117188 774.914062 791.546875 773.722656 790.816406 773.117188 " fill-opacity="1" fill-rule="nonzero"/><g clip-path="url(#96ae9c1d49)"><path fill="#ffffff" d="M 687.074219 718.945312 L 633.0625 673.871094 C 632.402344 673.324219 631.402344 673.792969 631.402344 674.65625 L 631.402344 766.765625 C 631.402344 767.625 632.402344 768.097656 633.0625 767.546875 L 687.074219 722.476562 C 688.175781 721.558594 688.175781 719.863281 687.074219 718.945312 " fill-opacity="1" fill-rule="nonzero"/></g><g clip-path="url(#dbcd77ec41)"><path fill="#ffffff" d="M 640.730469 668.304688 L 713.746094 729.234375 C 714.921875 730.214844 716.625 730.214844 717.800781 729.234375 L 790.816406 668.304688 C 791.546875 667.699219 791.117188 666.503906 790.171875 666.503906 L 641.378906 666.503906 C 640.429688 666.503906 640 667.699219 640.730469 668.304688 " fill-opacity="1" fill-rule="nonzero"/></g><g clip-path="url(#6a94cbd8f2)"><path fill="#ffffff" d="M 798.488281 673.871094 L 744.476562 718.945312 C 743.375 719.863281 743.375 721.558594 744.476562 722.476562 L 798.488281 767.546875 C 799.144531 768.097656 800.144531 767.628906 800.144531 766.765625 L 800.144531 674.65625 C 800.144531 673.792969 799.144531 673.324219 798.488281 673.871094 " fill-opacity="1" fill-rule="nonzero"/></g><g clip-path="url(#9204c75166)"><path fill="#ffffff" d="M 790.816406 646.90625 L 737.859375 602.710938 C 736.308594 601.421875 734.066406 601.421875 732.519531 602.710938 L 718.25 614.617188 C 716.8125 615.816406 714.734375 615.816406 713.296875 614.617188 L 699.03125 602.710938 C 697.484375 601.421875 695.238281 601.421875 693.6875 602.710938 L 640.730469 646.90625 C 640 647.511719 640.429688 648.703125 641.378906 648.703125 L 790.171875 648.703125 C 791.117188 648.703125 791.546875 647.511719 790.816406 646.90625 " fill-opacity="1" fill-rule="nonzero"/></g><g clip-path="url(#1331688913)"><path fill="#ffffff" d="M 687.074219 592.734375 L 633.0625 547.664062 C 632.402344 547.113281 631.402344 547.582031 631.402344 548.445312 L 631.402344 640.554688 C 631.402344 641.414062 632.402344 641.886719 633.0625 641.339844 L 687.074219 596.265625 C 688.175781 595.347656 688.175781 593.652344 687.074219 592.734375 " fill-opacity="1" fill-rule="nonzero"/></g><g clip-path="url(#464dad48b5)"><path fill="#ffffff" d="M 640.730469 542.09375 L 713.746094 603.027344 C 714.921875 604.007812 716.625 604.007812 717.800781 603.027344 L 790.816406 542.09375 C 791.546875 541.488281 791.117188 540.296875 790.171875 540.296875 L 641.378906 540.296875 C 640.429688 540.296875 640 541.488281 640.730469 542.09375 " fill-opacity="1" fill-rule="nonzero"/></g><g clip-path="url(#59c87df34e)"><path fill="#ffffff" d="M 798.488281 547.664062 L 744.476562 592.734375 C 743.375 593.652344 743.375 595.347656 744.476562 596.265625 L 798.488281 641.339844 C 799.144531 641.886719 800.144531 641.417969 800.144531 640.554688 L 800.144531 548.445312 C 800.144531 547.582031 799.144531 547.113281 798.488281 547.664062 " fill-opacity="1" fill-rule="nonzero"/></g><g clip-path="url(#d38b97e8e9)"><path fill="#ffffff" d="M 790.816406 520.460938 L 737.859375 476.269531 C 736.308594 474.976562 734.066406 474.976562 732.519531 476.269531 L 718.25 488.175781 C 716.8125 489.371094 714.734375 489.371094 713.296875 488.175781 L 699.03125 476.269531 C 697.484375 474.976562 695.238281 474.976562 693.6875 476.269531 L 640.730469 520.460938 C 640 521.070312 640.429688 522.261719 641.378906 522.261719 L 790.171875 522.261719 C 791.117188 522.261719 791.546875 521.070312 790.816406 520.460938 " fill-opacity="1" fill-rule="nonzero"/></g><g clip-path="url(#bbb01d9190)"><path fill="#ffffff" d="M 687.074219 466.289062 L 633.0625 421.21875 C 632.402344 420.667969 631.402344 421.140625 631.402344 422 L 631.402344 514.109375 C 631.402344 514.972656 632.402344 515.441406 633.0625 514.894531 L 687.074219 469.824219 C 688.175781 468.902344 688.175781 467.207031 687.074219 466.289062 " fill-opacity="1" fill-rule="nonzero"/></g><g clip-path="url(#0615578eb7)"><path fill="#ffffff" d="M 640.730469 415.652344 L 713.746094 476.582031 C 714.921875 477.5625 716.625 477.5625 717.800781 476.582031 L 790.816406 415.652344 C 791.546875 415.042969 791.117188 413.851562 790.171875 413.851562 L 641.378906 413.851562 C 640.429688 413.851562 640 415.042969 640.730469 415.652344 " fill-opacity="1" fill-rule="nonzero"/></g><g clip-path="url(#85834963ab)"><path fill="#ffffff" d="M 798.488281 421.21875 L 744.476562 466.289062 C 743.375 467.207031 743.375 468.902344 744.476562 469.824219 L 798.488281 514.894531 C 799.144531 515.441406 800.144531 514.972656 800.144531 514.113281 L 800.144531 422 C 800.144531 421.140625 799.144531 420.667969 798.488281 421.21875 " fill-opacity="1" fill-rule="nonzero"/></g><g clip-path="url(#8b74575e59)"><path fill="#ffffff" d="M 790.816406 394.25 L 737.859375 350.058594 C 736.308594 348.765625 734.066406 348.765625 732.519531 350.058594 L 718.25 361.964844 C 716.8125 363.160156 714.734375 363.160156 713.296875 361.964844 L 699.03125 350.058594 C 697.484375 348.765625 695.238281 348.765625 693.6875 350.058594 L 640.730469 394.25 C 640 394.859375 640.429688 396.050781 641.378906 396.050781 L 790.171875 396.050781 C 791.117188 396.050781 791.546875 394.859375 790.816406 394.25 " fill-opacity="1" fill-rule="nonzero"/></g><g clip-path="url(#cca49f56cb)"><path fill="#ffffff" d="M 687.074219 340.082031 L 633.0625 295.007812 C 632.402344 294.460938 631.402344 294.929688 631.402344 295.792969 L 631.402344 387.902344 C 631.402344 388.761719 632.402344 389.234375 633.0625 388.683594 L 687.074219 343.613281 C 688.175781 342.695312 688.175781 341 687.074219 340.082031 " fill-opacity="1" fill-rule="nonzero"/></g><g clip-path="url(#d5ff571f3d)"><path fill="#ffffff" d="M 640.730469 289.441406 L 713.746094 350.371094 C 714.921875 351.351562 716.625 351.351562 717.800781 350.371094 L 790.816406 289.441406 C 791.546875 288.835938 791.117188 287.640625 790.171875 287.640625 L 641.378906 287.640625 C 640.429688 287.640625 640 288.835938 640.730469 289.441406 " fill-opacity="1" fill-rule="nonzero"/></g><g clip-path="url(#0497454b49)"><path fill="#ffffff" d="M 798.488281 295.007812 L 744.476562 340.082031 C 743.375 341 743.375 342.695312 744.476562 343.613281 L 798.488281 388.683594 C 799.144531 389.234375 800.144531 388.761719 800.144531 387.902344 L 800.144531 295.792969 C 800.144531 294.929688 799.144531 294.460938 798.488281 295.007812 " fill-opacity="1" fill-rule="nonzero"/></g><g clip-path="url(#015747f7ad)"><path fill="#ffffff" d="M 790.816406 267.808594 L 737.859375 223.613281 C 736.308594 222.324219 734.066406 222.324219 732.519531 223.613281 L 718.25 235.519531 C 716.8125 236.71875 714.734375 236.71875 713.296875 235.519531 L 699.03125 223.613281 C 697.484375 222.324219 695.238281 222.324219 693.6875 223.613281 L 640.730469 267.808594 C 640 268.417969 640.429688 269.605469 641.378906 269.605469 L 790.171875 269.605469 C 791.117188 269.605469 791.546875 268.417969 790.816406 267.808594 " fill-opacity="1" fill-rule="nonzero"/></g><g clip-path="url(#49ca719369)"><path fill="#ffffff" d="M 687.074219 213.636719 L 633.0625 168.566406 C 632.402344 168.015625 631.402344 168.488281 631.402344 169.347656 L 631.402344 261.457031 C 631.402344 262.316406 632.402344 262.789062 633.0625 262.242188 L 687.074219 217.167969 C 688.175781 216.25 688.175781 214.554688 687.074219 213.636719 " fill-opacity="1" fill-rule="nonzero"/></g><g clip-path="url(#0376b7b9fa)"><path fill="#ffffff" d="M 640.730469 163 L 713.746094 223.929688 C 714.921875 224.910156 716.625 224.910156 717.800781 223.929688 L 790.816406 163 C 791.546875 162.390625 791.117188 161.199219 790.171875 161.199219 L 641.378906 161.199219 C 640.429688 161.199219 640 162.390625 640.730469 163 " fill-opacity="1" fill-rule="nonzero"/></g><g clip-path="url(#f144d829fc)"><path fill="#ffffff" d="M 798.488281 168.566406 L 744.476562 213.636719 C 743.375 214.554688 743.375 216.25 744.476562 217.167969 L 798.488281 262.242188 C 799.144531 262.789062 800.144531 262.320312 800.144531 261.457031 L 800.144531 169.347656 C 800.144531 168.488281 799.144531 168.015625 798.488281 168.566406 " fill-opacity="1" fill-rule="nonzero"/></g><g clip-path="url(#eacd81c96a)"><path fill="#ffffff" d="M 790.816406 141.597656 L 737.859375 97.402344 C 736.308594 96.113281 734.066406 96.113281 732.519531 97.402344 L 718.25 109.308594 C 716.8125 110.507812 714.734375 110.507812 713.296875 109.308594 L 699.03125 97.402344 C 697.484375 96.113281 695.238281 96.113281 693.6875 97.402344 L 640.730469 141.597656 C 640 142.207031 640.429688 143.398438 641.378906 143.398438 L 790.171875 143.398438 C 791.117188 143.398438 791.546875 142.207031 790.816406 141.597656 " fill-opacity="1" fill-rule="nonzero"/></g><g clip-path="url(#3845816682)"><path fill="#ffffff" d="M 687.074219 87.425781 L 633.0625 42.355469 C 632.402344 41.804688 631.402344 42.277344 631.402344 43.136719 L 631.402344 135.246094 C 631.402344 136.109375 632.402344 136.578125 633.0625 136.03125 L 687.074219 90.960938 C 688.175781 90.039062 688.175781 88.34375 687.074219 87.425781 " fill-opacity="1" fill-rule="nonzero"/></g><g clip-path="url(#9c2e9652a6)"><path fill="#ffffff" d="M 640.730469 36.789062 L 713.746094 97.71875 C 714.921875 98.699219 716.625 98.699219 717.800781 97.71875 L 790.816406 36.789062 C 791.546875 36.179688 791.117188 34.988281 790.171875 34.988281 L 641.378906 34.988281 C 640.429688 34.988281 640 36.179688 640.730469 36.789062 " fill-opacity="1" fill-rule="nonzero"/></g><g clip-path="url(#7a4a0f929f)"><path fill="#ffffff" d="M 798.488281 42.355469 L 744.476562 87.425781 C 743.375 88.34375 743.375 90.039062 744.476562 90.960938 L 798.488281 136.03125 C 799.144531 136.578125 800.144531 136.109375 800.144531 135.25 L 800.144531 43.136719 C 800.144531 42.277344 799.144531 41.804688 798.488281 42.355469 " fill-opacity="1" fill-rule="nonzero"/></g><g clip-path="url(#a22aa9ccf3)"><path fill="#ffffff" d="M 980.679688 773.214844 L 927.71875 729.019531 C 926.171875 727.730469 923.925781 727.730469 922.378906 729.019531 L 908.109375 740.925781 C 906.675781 742.125 904.59375 742.125 903.160156 740.925781 L 888.890625 729.019531 C 887.34375 727.730469 885.097656 727.730469 883.550781 729.019531 L 830.589844 773.214844 C 829.863281 773.820312 830.289062 775.011719 831.238281 775.011719 L 980.03125 775.011719 C 980.980469 775.011719 981.40625 773.820312 980.679688 773.214844 " fill-opacity="1" fill-rule="nonzero"/></g><g clip-path="url(#3901cc2060)"><path fill="#ffffff" d="M 876.933594 719.042969 L 822.921875 673.972656 C 822.265625 673.421875 821.265625 673.890625 821.265625 674.753906 L 821.265625 766.863281 C 821.265625 767.722656 822.265625 768.195312 822.921875 767.648438 L 876.933594 722.574219 C 878.035156 721.65625 878.035156 719.960938 876.933594 719.042969 " fill-opacity="1" fill-rule="nonzero"/></g><g clip-path="url(#3cc5558702)"><path fill="#ffffff" d="M 830.589844 668.402344 L 903.609375 729.335938 C 904.78125 730.316406 906.488281 730.316406 907.660156 729.335938 L 980.679688 668.402344 C 981.40625 667.796875 980.980469 666.605469 980.03125 666.605469 L 831.238281 666.605469 C 830.289062 666.605469 829.863281 667.796875 830.589844 668.402344 " fill-opacity="1" fill-rule="nonzero"/></g><g clip-path="url(#9dca0a5db0)"><path fill="#ffffff" d="M 988.347656 673.972656 L 934.335938 719.042969 C 933.234375 719.960938 933.234375 721.65625 934.335938 722.574219 L 988.347656 767.648438 C 989.003906 768.195312 990.003906 767.726562 990.003906 766.863281 L 990.003906 674.753906 C 990.003906 673.890625 989.003906 673.421875 988.347656 673.972656 " fill-opacity="1" fill-rule="nonzero"/></g><g clip-path="url(#cae533d131)"><path fill="#ffffff" d="M 980.679688 647.003906 L 927.71875 602.808594 C 926.171875 601.519531 923.925781 601.519531 922.378906 602.808594 L 908.109375 614.714844 C 906.675781 615.914062 904.59375 615.914062 903.160156 614.714844 L 888.890625 602.808594 C 887.34375 601.519531 885.097656 601.519531 883.550781 602.808594 L 830.589844 647.003906 C 829.863281 647.613281 830.289062 648.800781 831.238281 648.800781 L 980.03125 648.800781 C 980.980469 648.800781 981.40625 647.613281 980.679688 647.003906 " fill-opacity="1" fill-rule="nonzero"/></g><g clip-path="url(#b70102c8c8)"><path fill="#ffffff" d="M 876.933594 592.832031 L 822.921875 547.761719 C 822.265625 547.210938 821.265625 547.683594 821.265625 548.542969 L 821.265625 640.652344 C 821.265625 641.515625 822.265625 641.984375 822.921875 641.4375 L 876.933594 596.363281 C 878.035156 595.445312 878.035156 593.75 876.933594 592.832031 " fill-opacity="1" fill-rule="nonzero"/></g><g clip-path="url(#592b28fd64)"><path fill="#ffffff" d="M 830.589844 542.195312 L 903.609375 603.125 C 904.78125 604.105469 906.488281 604.105469 907.660156 603.125 L 980.679688 542.195312 C 981.40625 541.585938 980.980469 540.394531 980.03125 540.394531 L 831.238281 540.394531 C 830.289062 540.394531 829.863281 541.585938 830.589844 542.195312 " fill-opacity="1" fill-rule="nonzero"/></g><g clip-path="url(#0fa43457ee)"><path fill="#ffffff" d="M 988.347656 547.761719 L 934.335938 592.832031 C 933.234375 593.75 933.234375 595.445312 934.335938 596.363281 L 988.347656 641.4375 C 989.003906 641.984375 990.003906 641.515625 990.003906 640.652344 L 990.003906 548.542969 C 990.003906 547.683594 989.003906 547.210938 988.347656 547.761719 " fill-opacity="1" fill-rule="nonzero"/></g><g clip-path="url(#5ac3e0aa99)"><path fill="#ffffff" d="M 980.679688 520.558594 L 927.71875 476.367188 C 926.171875 475.074219 923.925781 475.074219 922.378906 476.367188 L 908.109375 488.273438 C 906.675781 489.46875 904.59375 489.46875 903.160156 488.273438 L 888.890625 476.367188 C 887.34375 475.074219 885.097656 475.074219 883.550781 476.367188 L 830.589844 520.558594 C 829.863281 521.167969 830.289062 522.359375 831.238281 522.359375 L 980.03125 522.359375 C 980.980469 522.359375 981.40625 521.167969 980.679688 520.558594 " fill-opacity="1" fill-rule="nonzero"/></g><g clip-path="url(#8e7a456206)"><path fill="#ffffff" d="M 876.933594 466.390625 L 822.921875 421.316406 C 822.265625 420.765625 821.265625 421.238281 821.265625 422.101562 L 821.265625 514.207031 C 821.265625 515.070312 822.265625 515.542969 822.921875 514.992188 L 876.933594 469.921875 C 878.035156 469.003906 878.035156 467.304688 876.933594 466.390625 " fill-opacity="1" fill-rule="nonzero"/></g><g clip-path="url(#16039c7f2e)"><path fill="#ffffff" d="M 830.589844 415.75 L 903.609375 476.679688 C 904.78125 477.660156 906.488281 477.660156 907.660156 476.679688 L 980.679688 415.75 C 981.40625 415.140625 980.980469 413.949219 980.03125 413.949219 L 831.238281 413.949219 C 830.289062 413.949219 829.863281 415.140625 830.589844 415.75 " fill-opacity="1" fill-rule="nonzero"/></g><g clip-path="url(#4d521865d2)"><path fill="#ffffff" d="M 988.347656 421.316406 L 934.335938 466.390625 C 933.234375 467.304688 933.234375 469.003906 934.335938 469.921875 L 988.347656 514.992188 C 989.003906 515.542969 990.003906 515.070312 990.003906 514.210938 L 990.003906 422.101562 C 990.003906 421.238281 989.003906 420.765625 988.347656 421.316406 " fill-opacity="1" fill-rule="nonzero"/></g><g clip-path="url(#3f6104d60d)"><path fill="#ffffff" d="M 980.679688 394.351562 L 927.71875 350.15625 C 926.171875 348.863281 923.925781 348.863281 922.378906 350.15625 L 908.109375 362.0625 C 906.675781 363.261719 904.59375 363.261719 903.160156 362.0625 L 888.890625 350.15625 C 887.34375 348.863281 885.097656 348.863281 883.550781 350.15625 L 830.589844 394.351562 C 829.863281 394.957031 830.289062 396.148438 831.238281 396.148438 L 980.03125 396.148438 C 980.980469 396.148438 981.40625 394.957031 980.679688 394.351562 " fill-opacity="1" fill-rule="nonzero"/></g><g clip-path="url(#744e0bf33e)"><path fill="#ffffff" d="M 876.933594 340.179688 L 822.921875 295.109375 C 822.265625 294.558594 821.265625 295.027344 821.265625 295.890625 L 821.265625 388 C 821.265625 388.859375 822.265625 389.332031 822.921875 388.78125 L 876.933594 343.710938 C 878.035156 342.792969 878.035156 341.097656 876.933594 340.179688 " fill-opacity="1" fill-rule="nonzero"/></g><g clip-path="url(#07c26159fb)"><path fill="#ffffff" d="M 830.589844 289.539062 L 903.609375 350.472656 C 904.78125 351.449219 906.488281 351.449219 907.660156 350.472656 L 980.679688 289.539062 C 981.40625 288.933594 980.980469 287.742188 980.03125 287.742188 L 831.238281 287.742188 C 830.289062 287.742188 829.863281 288.933594 830.589844 289.539062 " fill-opacity="1" fill-rule="nonzero"/></g><g clip-path="url(#8df5d7c940)"><path fill="#ffffff" d="M 988.347656 295.109375 L 934.335938 340.179688 C 933.234375 341.097656 933.234375 342.792969 934.335938 343.710938 L 988.347656 388.78125 C 989.003906 389.332031 990.003906 388.863281 990.003906 388 L 990.003906 295.890625 C 990.003906 295.027344 989.003906 294.558594 988.347656 295.109375 " fill-opacity="1" fill-rule="nonzero"/></g><g clip-path="url(#1d64bc0b92)"><path fill="#ffffff" d="M 980.679688 267.90625 L 927.71875 223.710938 C 926.171875 222.421875 923.925781 222.421875 922.378906 223.710938 L 908.109375 235.617188 C 906.675781 236.816406 904.59375 236.816406 903.160156 235.617188 L 888.890625 223.710938 C 887.34375 222.421875 885.097656 222.421875 883.550781 223.710938 L 830.589844 267.90625 C 829.863281 268.515625 830.289062 269.707031 831.238281 269.707031 L 980.03125 269.707031 C 980.980469 269.707031 981.40625 268.515625 980.679688 267.90625 " fill-opacity="1" fill-rule="nonzero"/></g><g clip-path="url(#c51422b6b0)"><path fill="#ffffff" d="M 876.933594 213.734375 L 822.921875 168.664062 C 822.265625 168.113281 821.265625 168.585938 821.265625 169.445312 L 821.265625 261.554688 C 821.265625 262.417969 822.265625 262.886719 822.921875 262.339844 L 876.933594 217.269531 C 878.035156 216.347656 878.035156 214.652344 876.933594 213.734375 " fill-opacity="1" fill-rule="nonzero"/></g><g clip-path="url(#d0e6e1f43a)"><path fill="#ffffff" d="M 830.589844 163.097656 L 903.609375 224.027344 C 904.78125 225.007812 906.488281 225.007812 907.660156 224.027344 L 980.679688 163.097656 C 981.40625 162.488281 980.980469 161.296875 980.03125 161.296875 L 831.238281 161.296875 C 830.289062 161.296875 829.863281 162.488281 830.589844 163.097656 " fill-opacity="1" fill-rule="nonzero"/></g><g clip-path="url(#c26f5f4379)"><path fill="#ffffff" d="M 988.347656 168.664062 L 934.335938 213.734375 C 933.234375 214.652344 933.234375 216.347656 934.335938 217.269531 L 988.347656 262.339844 C 989.003906 262.886719 990.003906 262.417969 990.003906 261.558594 L 990.003906 169.445312 C 990.003906 168.585938 989.003906 168.113281 988.347656 168.664062 " fill-opacity="1" fill-rule="nonzero"/></g><g clip-path="url(#a4d9813e88)"><path fill="#ffffff" d="M 980.679688 141.695312 L 927.71875 97.503906 C 926.171875 96.210938 923.925781 96.210938 922.378906 97.503906 L 908.109375 109.410156 C 906.675781 110.605469 904.59375 110.605469 903.160156 109.410156 L 888.890625 97.503906 C 887.34375 96.210938 885.097656 96.210938 883.550781 97.503906 L 830.589844 141.695312 C 829.863281 142.304688 830.289062 143.496094 831.238281 143.496094 L 980.03125 143.496094 C 980.980469 143.496094 981.40625 142.304688 980.679688 141.695312 " fill-opacity="1" fill-rule="nonzero"/></g><g clip-path="url(#12f1c0549a)"><path fill="#ffffff" d="M 876.933594 87.527344 L 822.921875 42.453125 C 822.265625 41.902344 821.265625 42.375 821.265625 43.238281 L 821.265625 135.34375 C 821.265625 136.207031 822.265625 136.679688 822.921875 136.128906 L 876.933594 91.058594 C 878.035156 90.140625 878.035156 88.441406 876.933594 87.527344 " fill-opacity="1" fill-rule="nonzero"/></g><path fill="#ffffff" d="M 830.589844 36.886719 L 903.609375 97.816406 C 904.78125 98.796875 906.488281 98.796875 907.660156 97.816406 L 980.679688 36.886719 C 981.40625 36.277344 980.980469 35.085938 980.03125 35.085938 L 831.238281 35.085938 C 830.289062 35.085938 829.863281 36.277344 830.589844 36.886719 " fill-opacity="1" fill-rule="nonzero"/><g clip-path="url(#a020c2b96c)"><path fill="#ffffff" d="M 988.347656 42.453125 L 934.335938 87.527344 C 933.234375 88.441406 933.234375 90.140625 934.335938 91.058594 L 988.347656 136.128906 C 989.003906 136.679688 990.003906 136.207031 990.003906 135.347656 L 990.003906 43.238281 C 990.003906 42.375 989.003906 41.902344 988.347656 42.453125 " fill-opacity="1" fill-rule="nonzero"/></g><g clip-path="url(#b5b4d41c41)"><path fill="#ffffff" d="M 1170.789062 773.214844 L 1117.832031 729.019531 C 1116.285156 727.730469 1114.039062 727.730469 1112.492188 729.019531 L 1098.222656 740.925781 C 1096.789062 742.125 1094.707031 742.125 1093.269531 740.925781 L 1079.003906 729.019531 C 1077.457031 727.730469 1075.210938 727.730469 1073.664062 729.019531 L 1020.703125 773.214844 C 1019.972656 773.820312 1020.402344 775.011719 1021.351562 775.011719 L 1170.144531 775.011719 C 1171.089844 775.011719 1171.519531 773.820312 1170.789062 773.214844 " fill-opacity="1" fill-rule="nonzero"/></g><g clip-path="url(#940141f8f3)"><path fill="#ffffff" d="M 1067.046875 719.042969 L 1013.035156 673.972656 C 1012.375 673.421875 1011.375 673.890625 1011.375 674.753906 L 1011.375 766.863281 C 1011.375 767.722656 1012.375 768.195312 1013.035156 767.648438 L 1067.046875 722.574219 C 1068.148438 721.65625 1068.148438 719.960938 1067.046875 719.042969 " fill-opacity="1" fill-rule="nonzero"/></g><g clip-path="url(#3b67d33057)"><path fill="#ffffff" d="M 1020.703125 668.402344 L 1093.71875 729.335938 C 1094.894531 730.316406 1096.597656 730.316406 1097.773438 729.335938 L 1170.789062 668.402344 C 1171.519531 667.796875 1171.089844 666.605469 1170.144531 666.605469 L 1021.351562 666.605469 C 1020.402344 666.605469 1019.972656 667.796875 1020.703125 668.402344 " fill-opacity="1" fill-rule="nonzero"/></g><g clip-path="url(#048086e234)"><path fill="#ffffff" d="M 1178.460938 673.972656 L 1124.449219 719.042969 C 1123.347656 719.960938 1123.347656 721.65625 1124.449219 722.574219 L 1178.460938 767.648438 C 1179.117188 768.195312 1180.117188 767.726562 1180.117188 766.863281 L 1180.117188 674.753906 C 1180.117188 673.890625 1179.117188 673.421875 1178.460938 673.972656 " fill-opacity="1" fill-rule="nonzero"/></g><g clip-path="url(#c459297c8e)"><path fill="#ffffff" d="M 1170.789062 647.003906 L 1117.832031 602.808594 C 1116.285156 601.519531 1114.039062 601.519531 1112.492188 602.808594 L 1098.222656 614.714844 C 1096.789062 615.914062 1094.707031 615.914062 1093.269531 614.714844 L 1079.003906 602.808594 C 1077.457031 601.519531 1075.210938 601.519531 1073.664062 602.808594 L 1020.703125 647.003906 C 1019.972656 647.613281 1020.402344 648.800781 1021.351562 648.800781 L 1170.144531 648.800781 C 1171.089844 648.800781 1171.519531 647.613281 1170.789062 647.003906 " fill-opacity="1" fill-rule="nonzero"/></g><g clip-path="url(#4eaca616ff)"><path fill="#ffffff" d="M 1067.046875 592.832031 L 1013.035156 547.761719 C 1012.375 547.210938 1011.375 547.683594 1011.375 548.542969 L 1011.375 640.652344 C 1011.375 641.515625 1012.375 641.984375 1013.035156 641.4375 L 1067.046875 596.363281 C 1068.148438 595.445312 1068.148438 593.75 1067.046875 592.832031 " fill-opacity="1" fill-rule="nonzero"/></g><g clip-path="url(#d28fcb1d70)"><path fill="#ffffff" d="M 1020.703125 542.195312 L 1093.71875 603.125 C 1094.894531 604.105469 1096.597656 604.105469 1097.773438 603.125 L 1170.789062 542.195312 C 1171.519531 541.585938 1171.089844 540.394531 1170.144531 540.394531 L 1021.351562 540.394531 C 1020.402344 540.394531 1019.972656 541.585938 1020.703125 542.195312 " fill-opacity="1" fill-rule="nonzero"/></g><g clip-path="url(#c482a118b2)"><path fill="#ffffff" d="M 1178.460938 547.761719 L 1124.449219 592.832031 C 1123.347656 593.75 1123.347656 595.445312 1124.449219 596.363281 L 1178.460938 641.4375 C 1179.117188 641.984375 1180.117188 641.515625 1180.117188 640.652344 L 1180.117188 548.542969 C 1180.117188 547.683594 1179.117188 547.210938 1178.460938 547.761719 " fill-opacity="1" fill-rule="nonzero"/></g><g clip-path="url(#538a1a44a7)"><path fill="#ffffff" d="M 1170.789062 520.558594 L 1117.832031 476.367188 C 1116.285156 475.074219 1114.039062 475.074219 1112.492188 476.367188 L 1098.222656 488.273438 C 1096.789062 489.46875 1094.707031 489.46875 1093.269531 488.273438 L 1079.003906 476.367188 C 1077.457031 475.074219 1075.210938 475.074219 1073.664062 476.367188 L 1020.703125 520.558594 C 1019.972656 521.167969 1020.402344 522.359375 1021.351562 522.359375 L 1170.144531 522.359375 C 1171.089844 522.359375 1171.519531 521.167969 1170.789062 520.558594 " fill-opacity="1" fill-rule="nonzero"/></g><g clip-path="url(#8c4a5a2758)"><path fill="#ffffff" d="M 1067.046875 466.390625 L 1013.035156 421.316406 C 1012.375 420.765625 1011.375 421.238281 1011.375 422.101562 L 1011.375 514.207031 C 1011.375 515.070312 1012.375 515.542969 1013.035156 514.992188 L 1067.046875 469.921875 C 1068.148438 469.003906 1068.148438 467.304688 1067.046875 466.390625 " fill-opacity="1" fill-rule="nonzero"/></g><g clip-path="url(#24eb6a5646)"><path fill="#ffffff" d="M 1020.703125 415.75 L 1093.71875 476.679688 C 1094.894531 477.660156 1096.597656 477.660156 1097.773438 476.679688 L 1170.789062 415.75 C 1171.519531 415.140625 1171.089844 413.949219 1170.144531 413.949219 L 1021.351562 413.949219 C 1020.402344 413.949219 1019.972656 415.140625 1020.703125 415.75 " fill-opacity="1" fill-rule="nonzero"/></g><g clip-path="url(#787c1381af)"><path fill="#ffffff" d="M 1178.460938 421.316406 L 1124.449219 466.390625 C 1123.347656 467.304688 1123.347656 469.003906 1124.449219 469.921875 L 1178.460938 514.992188 C 1179.117188 515.542969 1180.117188 515.070312 1180.117188 514.210938 L 1180.117188 422.101562 C 1180.117188 421.238281 1179.117188 420.765625 1178.460938 421.316406 " fill-opacity="1" fill-rule="nonzero"/></g><g clip-path="url(#9cf004887b)"><path fill="#ffffff" d="M 1170.789062 394.351562 L 1117.832031 350.15625 C 1116.285156 348.863281 1114.039062 348.863281 1112.492188 350.15625 L 1098.222656 362.0625 C 1096.789062 363.261719 1094.707031 363.261719 1093.269531 362.0625 L 1079.003906 350.15625 C 1077.457031 348.863281 1075.210938 348.863281 1073.664062 350.15625 L 1020.703125 394.351562 C 1019.972656 394.957031 1020.402344 396.148438 1021.351562 396.148438 L 1170.144531 396.148438 C 1171.089844 396.148438 1171.519531 394.957031 1170.789062 394.351562 " fill-opacity="1" fill-rule="nonzero"/></g><g clip-path="url(#be6517cdea)"><path fill="#ffffff" d="M 1067.046875 340.179688 L 1013.035156 295.109375 C 1012.375 294.558594 1011.375 295.027344 1011.375 295.890625 L 1011.375 388 C 1011.375 388.859375 1012.375 389.332031 1013.035156 388.78125 L 1067.046875 343.710938 C 1068.148438 342.792969 1068.148438 341.097656 1067.046875 340.179688 " fill-opacity="1" fill-rule="nonzero"/></g><g clip-path="url(#a114fd761e)"><path fill="#ffffff" d="M 1020.703125 289.539062 L 1093.71875 350.472656 C 1094.894531 351.449219 1096.597656 351.449219 1097.773438 350.472656 L 1170.789062 289.539062 C 1171.519531 288.933594 1171.089844 287.742188 1170.144531 287.742188 L 1021.351562 287.742188 C 1020.402344 287.742188 1019.972656 288.933594 1020.703125 289.539062 " fill-opacity="1" fill-rule="nonzero"/></g><g clip-path="url(#88bee0b18d)"><path fill="#ffffff" d="M 1178.460938 295.109375 L 1124.449219 340.179688 C 1123.347656 341.097656 1123.347656 342.792969 1124.449219 343.710938 L 1178.460938 388.78125 C 1179.117188 389.332031 1180.117188 388.863281 1180.117188 388 L 1180.117188 295.890625 C 1180.117188 295.027344 1179.117188 294.558594 1178.460938 295.109375 " fill-opacity="1" fill-rule="nonzero"/></g><g clip-path="url(#d00c386111)"><path fill="#ffffff" d="M 1170.789062 267.90625 L 1117.832031 223.710938 C 1116.285156 222.421875 1114.039062 222.421875 1112.492188 223.710938 L 1098.222656 235.617188 C 1096.789062 236.816406 1094.707031 236.816406 1093.269531 235.617188 L 1079.003906 223.710938 C 1077.457031 222.421875 1075.210938 222.421875 1073.664062 223.710938 L 1020.703125 267.90625 C 1019.972656 268.515625 1020.402344 269.707031 1021.351562 269.707031 L 1170.144531 269.707031 C 1171.089844 269.707031 1171.519531 268.515625 1170.789062 267.90625 " fill-opacity="1" fill-rule="nonzero"/></g><g clip-path="url(#ab96625bfa)"><path fill="#ffffff" d="M 1067.046875 213.734375 L 1013.035156 168.664062 C 1012.375 168.113281 1011.375 168.585938 1011.375 169.445312 L 1011.375 261.554688 C 1011.375 262.417969 1012.375 262.886719 1013.035156 262.339844 L 1067.046875 217.269531 C 1068.148438 216.347656 1068.148438 214.652344 1067.046875 213.734375 " fill-opacity="1" fill-rule="nonzero"/></g><g clip-path="url(#f10da180df)"><path fill="#ffffff" d="M 1020.703125 163.097656 L 1093.71875 224.027344 C 1094.894531 225.007812 1096.597656 225.007812 1097.773438 224.027344 L 1170.789062 163.097656 C 1171.519531 162.488281 1171.089844 161.296875 1170.144531 161.296875 L 1021.351562 161.296875 C 1020.402344 161.296875 1019.972656 162.488281 1020.703125 163.097656 " fill-opacity="1" fill-rule="nonzero"/></g><g clip-path="url(#9224d7ef4b)"><path fill="#ffffff" d="M 1178.460938 168.664062 L 1124.449219 213.734375 C 1123.347656 214.652344 1123.347656 216.347656 1124.449219 217.269531 L 1178.460938 262.339844 C 1179.117188 262.886719 1180.117188 262.417969 1180.117188 261.558594 L 1180.117188 169.445312 C 1180.117188 168.585938 1179.117188 168.113281 1178.460938 168.664062 " fill-opacity="1" fill-rule="nonzero"/></g><g clip-path="url(#9e9dec0b5a)"><path fill="#ffffff" d="M 1170.789062 141.695312 L 1117.832031 97.503906 C 1116.285156 96.210938 1114.039062 96.210938 1112.492188 97.503906 L 1098.222656 109.410156 C 1096.789062 110.605469 1094.707031 110.605469 1093.269531 109.410156 L 1079.003906 97.503906 C 1077.457031 96.210938 1075.210938 96.210938 1073.664062 97.503906 L 1020.703125 141.695312 C 1019.972656 142.304688 1020.402344 143.496094 1021.351562 143.496094 L 1170.144531 143.496094 C 1171.089844 143.496094 1171.519531 142.304688 1170.789062 141.695312 " fill-opacity="1" fill-rule="nonzero"/></g><g clip-path="url(#72adcfdfa6)"><path fill="#ffffff" d="M 1067.046875 87.527344 L 1013.035156 42.453125 C 1012.375 41.902344 1011.375 42.375 1011.375 43.238281 L 1011.375 135.34375 C 1011.375 136.207031 1012.375 136.679688 1013.035156 136.128906 L 1067.046875 91.058594 C 1068.148438 90.140625 1068.148438 88.441406 1067.046875 87.527344 " fill-opacity="1" fill-rule="nonzero"/></g><path fill="#ffffff" d="M 1020.703125 36.886719 L 1093.71875 97.816406 C 1094.894531 98.796875 1096.597656 98.796875 1097.773438 97.816406 L 1170.789062 36.886719 C 1171.519531 36.277344 1171.089844 35.085938 1170.144531 35.085938 L 1021.351562 35.085938 C 1020.402344 35.085938 1019.972656 36.277344 1020.703125 36.886719 " fill-opacity="1" fill-rule="nonzero"/><g clip-path="url(#5b398836a7)"><path fill="#ffffff" d="M 1178.460938 42.453125 L 1124.449219 87.527344 C 1123.347656 88.441406 1123.347656 90.140625 1124.449219 91.058594 L 1178.460938 136.128906 C 1179.117188 136.679688 1180.117188 136.207031 1180.117188 135.347656 L 1180.117188 43.238281 C 1180.117188 42.375 1179.117188 41.902344 1178.460938 42.453125 " fill-opacity="1" fill-rule="nonzero"/></g><g clip-path="url(#04bd0ff438)"><path fill="#ffffff" d="M 1360.902344 773.3125 L 1307.945312 729.117188 C 1306.394531 727.828125 1304.152344 727.828125 1302.605469 729.117188 L 1288.335938 741.023438 C 1286.898438 742.222656 1284.820312 742.222656 1283.382812 741.023438 L 1269.117188 729.117188 C 1267.566406 727.828125 1265.324219 727.828125 1263.773438 729.117188 L 1210.816406 773.3125 C 1210.085938 773.921875 1210.515625 775.109375 1211.460938 775.109375 L 1360.257812 775.109375 C 1361.203125 775.109375 1361.632812 773.921875 1360.902344 773.3125 " fill-opacity="1" fill-rule="nonzero"/></g><g clip-path="url(#3310edaace)"><path fill="#ffffff" d="M 1257.160156 719.140625 L 1203.148438 674.070312 C 1202.488281 673.519531 1201.488281 673.992188 1201.488281 674.851562 L 1201.488281 766.960938 C 1201.488281 767.824219 1202.488281 768.292969 1203.148438 767.746094 L 1257.160156 722.671875 C 1258.261719 721.753906 1258.261719 720.058594 1257.160156 719.140625 " fill-opacity="1" fill-rule="nonzero"/></g><g clip-path="url(#f037ef4b40)"><path fill="#ffffff" d="M 1210.816406 668.503906 L 1283.832031 729.433594 C 1285.007812 730.414062 1286.710938 730.414062 1287.886719 729.433594 L 1360.902344 668.503906 C 1361.632812 667.894531 1361.203125 666.703125 1360.257812 666.703125 L 1211.460938 666.703125 C 1210.515625 666.703125 1210.085938 667.894531 1210.816406 668.503906 " fill-opacity="1" fill-rule="nonzero"/></g><g clip-path="url(#3abeafcd16)"><path fill="#ffffff" d="M 1368.574219 674.070312 L 1314.5625 719.140625 C 1313.460938 720.058594 1313.460938 721.753906 1314.5625 722.671875 L 1368.574219 767.746094 C 1369.230469 768.292969 1370.230469 767.824219 1370.230469 766.960938 L 1370.230469 674.851562 C 1370.230469 673.992188 1369.230469 673.519531 1368.574219 674.070312 " fill-opacity="1" fill-rule="nonzero"/></g><path fill="#ffffff" d="M 1360.902344 647.101562 L 1307.945312 602.910156 C 1306.394531 601.617188 1304.152344 601.617188 1302.605469 602.910156 L 1288.335938 614.816406 C 1286.898438 616.011719 1284.820312 616.011719 1283.382812 614.816406 L 1269.117188 602.910156 C 1267.566406 601.617188 1265.324219 601.617188 1263.773438 602.910156 L 1210.816406 647.101562 C 1210.085938 647.710938 1210.515625 648.902344 1211.460938 648.902344 L 1360.257812 648.902344 C 1361.203125 648.902344 1361.632812 647.710938 1360.902344 647.101562 " fill-opacity="1" fill-rule="nonzero"/><g clip-path="url(#18424f9ed5)"><path fill="#ffffff" d="M 1257.160156 592.929688 L 1203.148438 547.859375 C 1202.488281 547.308594 1201.488281 547.78125 1201.488281 548.640625 L 1201.488281 640.75 C 1201.488281 641.613281 1202.488281 642.082031 1203.148438 641.535156 L 1257.160156 596.464844 C 1258.261719 595.542969 1258.261719 593.847656 1257.160156 592.929688 " fill-opacity="1" fill-rule="nonzero"/></g><g clip-path="url(#0bce1b8b42)"><path fill="#ffffff" d="M 1210.816406 542.292969 L 1283.832031 603.222656 C 1285.007812 604.203125 1286.710938 604.203125 1287.886719 603.222656 L 1360.902344 542.292969 C 1361.632812 541.683594 1361.203125 540.492188 1360.257812 540.492188 L 1211.460938 540.492188 C 1210.515625 540.492188 1210.085938 541.683594 1210.816406 542.292969 " fill-opacity="1" fill-rule="nonzero"/></g><g clip-path="url(#7f0d9e74d3)"><path fill="#ffffff" d="M 1368.574219 547.859375 L 1314.5625 592.929688 C 1313.460938 593.847656 1313.460938 595.542969 1314.5625 596.464844 L 1368.574219 641.535156 C 1369.230469 642.082031 1370.230469 641.613281 1370.230469 640.753906 L 1370.230469 548.640625 C 1370.230469 547.78125 1369.230469 547.308594 1368.574219 547.859375 " fill-opacity="1" fill-rule="nonzero"/></g><g clip-path="url(#8a69d0ce42)"><path fill="#ffffff" d="M 1360.902344 520.660156 L 1307.945312 476.464844 C 1306.394531 475.171875 1304.152344 475.171875 1302.605469 476.464844 L 1288.335938 488.371094 C 1286.898438 489.570312 1284.820312 489.570312 1283.382812 488.371094 L 1269.117188 476.464844 C 1267.566406 475.171875 1265.324219 475.171875 1263.773438 476.464844 L 1210.816406 520.660156 C 1210.085938 521.265625 1210.515625 522.457031 1211.460938 522.457031 L 1360.257812 522.457031 C 1361.203125 522.457031 1361.632812 521.265625 1360.902344 520.660156 " fill-opacity="1" fill-rule="nonzero"/></g><g clip-path="url(#9adcd847d5)"><path fill="#ffffff" d="M 1257.160156 466.488281 L 1203.148438 421.417969 C 1202.488281 420.867188 1201.488281 421.335938 1201.488281 422.199219 L 1201.488281 514.308594 C 1201.488281 515.167969 1202.488281 515.640625 1203.148438 515.089844 L 1257.160156 470.019531 C 1258.261719 469.101562 1258.261719 467.40625 1257.160156 466.488281 " fill-opacity="1" fill-rule="nonzero"/></g><path fill="#ffffff" d="M 1210.816406 415.847656 L 1283.832031 476.78125 C 1285.007812 477.757812 1286.710938 477.757812 1287.886719 476.78125 L 1360.902344 415.847656 C 1361.632812 415.242188 1361.203125 414.046875 1360.257812 414.046875 L 1211.460938 414.046875 C 1210.515625 414.046875 1210.085938 415.242188 1210.816406 415.847656 " fill-opacity="1" fill-rule="nonzero"/><g clip-path="url(#7ea5d0a738)"><path fill="#ffffff" d="M 1368.574219 421.417969 L 1314.5625 466.488281 C 1313.460938 467.40625 1313.460938 469.101562 1314.5625 470.019531 L 1368.574219 515.089844 C 1369.230469 515.640625 1370.230469 515.171875 1370.230469 514.308594 L 1370.230469 422.199219 C 1370.230469 421.335938 1369.230469 420.867188 1368.574219 421.417969 " fill-opacity="1" fill-rule="nonzero"/></g><g clip-path="url(#75a867b9b9)"><path fill="#ffffff" d="M 1360.902344 394.449219 L 1307.945312 350.253906 C 1306.394531 348.964844 1304.152344 348.964844 1302.605469 350.253906 L 1288.335938 362.160156 C 1286.898438 363.359375 1284.820312 363.359375 1283.382812 362.160156 L 1269.117188 350.253906 C 1267.566406 348.964844 1265.324219 348.964844 1263.773438 350.253906 L 1210.816406 394.449219 C 1210.085938 395.058594 1210.515625 396.246094 1211.460938 396.246094 L 1360.257812 396.246094 C 1361.203125 396.246094 1361.632812 395.058594 1360.902344 394.449219 " fill-opacity="1" fill-rule="nonzero"/></g><g clip-path="url(#cb882fbe0d)"><path fill="#ffffff" d="M 1257.160156 340.277344 L 1203.148438 295.207031 C 1202.488281 294.65625 1201.488281 295.128906 1201.488281 295.988281 L 1201.488281 388.097656 C 1201.488281 388.957031 1202.488281 389.429688 1203.148438 388.882812 L 1257.160156 343.808594 C 1258.261719 342.890625 1258.261719 341.195312 1257.160156 340.277344 " fill-opacity="1" fill-rule="nonzero"/></g><g clip-path="url(#931d620bb1)"><path fill="#ffffff" d="M 1210.816406 289.640625 L 1283.832031 350.570312 C 1285.007812 351.550781 1286.710938 351.550781 1287.886719 350.570312 L 1360.902344 289.640625 C 1361.632812 289.03125 1361.203125 287.839844 1360.257812 287.839844 L 1211.460938 287.839844 C 1210.515625 287.839844 1210.085938 289.03125 1210.816406 289.640625 " fill-opacity="1" fill-rule="nonzero"/></g><g clip-path="url(#1d3a1cbbaa)"><path fill="#ffffff" d="M 1368.574219 295.207031 L 1314.5625 340.277344 C 1313.460938 341.195312 1313.460938 342.890625 1314.5625 343.808594 L 1368.574219 388.882812 C 1369.230469 389.429688 1370.230469 388.960938 1370.230469 388.097656 L 1370.230469 295.988281 C 1370.230469 295.128906 1369.230469 294.65625 1368.574219 295.207031 " fill-opacity="1" fill-rule="nonzero"/></g><g clip-path="url(#355b434aa3)"><path fill="#ffffff" d="M 1360.902344 268.003906 L 1307.945312 223.8125 C 1306.394531 222.519531 1304.152344 222.519531 1302.605469 223.8125 L 1288.335938 235.71875 C 1286.898438 236.914062 1284.820312 236.914062 1283.382812 235.71875 L 1269.117188 223.8125 C 1267.566406 222.519531 1265.324219 222.519531 1263.773438 223.8125 L 1210.816406 268.003906 C 1210.085938 268.613281 1210.515625 269.804688 1211.460938 269.804688 L 1360.257812 269.804688 C 1361.203125 269.804688 1361.632812 268.613281 1360.902344 268.003906 " fill-opacity="1" fill-rule="nonzero"/></g><g clip-path="url(#a69f6a14a0)"><path fill="#ffffff" d="M 1257.160156 213.835938 L 1203.148438 168.761719 C 1202.488281 168.210938 1201.488281 168.683594 1201.488281 169.546875 L 1201.488281 261.652344 C 1201.488281 262.515625 1202.488281 262.988281 1203.148438 262.4375 L 1257.160156 217.367188 C 1258.261719 216.449219 1258.261719 214.75 1257.160156 213.835938 " fill-opacity="1" fill-rule="nonzero"/></g><g clip-path="url(#297cc802b6)"><path fill="#ffffff" d="M 1210.816406 163.195312 L 1283.832031 224.125 C 1285.007812 225.105469 1286.710938 225.105469 1287.886719 224.125 L 1360.902344 163.195312 C 1361.632812 162.585938 1361.203125 161.394531 1360.257812 161.394531 L 1211.460938 161.394531 C 1210.515625 161.394531 1210.085938 162.585938 1210.816406 163.195312 " fill-opacity="1" fill-rule="nonzero"/></g><g clip-path="url(#ee7eaca617)"><path fill="#ffffff" d="M 1368.574219 168.761719 L 1314.5625 213.835938 C 1313.460938 214.75 1313.460938 216.449219 1314.5625 217.367188 L 1368.574219 262.4375 C 1369.230469 262.988281 1370.230469 262.515625 1370.230469 261.65625 L 1370.230469 169.546875 C 1370.230469 168.683594 1369.230469 168.210938 1368.574219 168.761719 " fill-opacity="1" fill-rule="nonzero"/></g><g clip-path="url(#f46e1e4aa8)"><path fill="#ffffff" d="M 1360.902344 141.796875 L 1307.945312 97.601562 C 1306.394531 96.308594 1304.152344 96.308594 1302.605469 97.601562 L 1288.335938 109.507812 C 1286.898438 110.707031 1284.820312 110.707031 1283.382812 109.507812 L 1269.117188 97.601562 C 1267.566406 96.308594 1265.324219 96.308594 1263.773438 97.601562 L 1210.816406 141.796875 C 1210.085938 142.402344 1210.515625 143.59375 1211.460938 143.59375 L 1360.257812 143.59375 C 1361.203125 143.59375 1361.632812 142.402344 1360.902344 141.796875 " fill-opacity="1" fill-rule="nonzero"/></g><g clip-path="url(#535fb65209)"><path fill="#ffffff" d="M 1257.160156 87.625 L 1203.148438 42.554688 C 1202.488281 42.003906 1201.488281 42.472656 1201.488281 43.335938 L 1201.488281 135.445312 C 1201.488281 136.304688 1202.488281 136.777344 1203.148438 136.226562 L 1257.160156 91.15625 C 1258.261719 90.238281 1258.261719 88.542969 1257.160156 87.625 " fill-opacity="1" fill-rule="nonzero"/></g><g clip-path="url(#0d7a436772)"><path fill="#ffffff" d="M 1210.816406 36.984375 L 1283.832031 97.914062 C 1285.007812 98.894531 1286.710938 98.894531 1287.886719 97.914062 L 1360.902344 36.984375 C 1361.632812 36.378906 1361.203125 35.183594 1360.257812 35.183594 L 1211.460938 35.183594 C 1210.515625 35.183594 1210.085938 36.378906 1210.816406 36.984375 " fill-opacity="1" fill-rule="nonzero"/></g><g clip-path="url(#b753f69b46)"><path fill="#ffffff" d="M 1368.574219 42.554688 L 1314.5625 87.625 C 1313.460938 88.542969 1313.460938 90.238281 1314.5625 91.15625 L 1368.574219 136.226562 C 1369.230469 136.777344 1370.230469 136.308594 1370.230469 135.445312 L 1370.230469 43.335938 C 1370.230469 42.472656 1369.230469 42.003906 1368.574219 42.554688 " fill-opacity="1" fill-rule="nonzero"/></g></svg>